G04 EAGLE Gerber RS-274X export*
G75*
%MOMM*%
%FSLAX34Y34*%
%LPD*%
%INBottom Copper*%
%IPPOS*%
%AMOC8*
5,1,8,0,0,1.08239X$1,22.5*%
G01*
%ADD10R,2.540000X8.382000*%
%ADD11C,1.524000*%
%ADD12R,5.080000X1.270000*%
%ADD13C,1.447800*%
%ADD14C,1.500000*%
%ADD15C,0.457200*%
%ADD16C,0.558800*%
%ADD17C,5.080000*%
%ADD18C,1.524000*%
%ADD19C,0.355600*%
%ADD20C,0.254000*%
%ADD21C,0.553200*%
%ADD22C,0.762000*%
%ADD23C,0.603200*%

G36*
X503448Y-21586D02*
X503448Y-21586D01*
X503467Y-21588D01*
X503569Y-21566D01*
X503671Y-21550D01*
X503688Y-21540D01*
X503708Y-21536D01*
X503797Y-21483D01*
X503888Y-21434D01*
X503902Y-21420D01*
X503919Y-21410D01*
X503986Y-21331D01*
X504058Y-21256D01*
X504066Y-21238D01*
X504079Y-21223D01*
X504118Y-21127D01*
X504161Y-21033D01*
X504163Y-21013D01*
X504171Y-20995D01*
X504189Y-20828D01*
X504189Y134494D01*
X504190Y134494D01*
X504308Y134509D01*
X504427Y134516D01*
X504465Y134529D01*
X504506Y134534D01*
X504616Y134577D01*
X504729Y134614D01*
X504764Y134636D01*
X504801Y134651D01*
X504897Y134721D01*
X504998Y134784D01*
X505026Y134814D01*
X505059Y134837D01*
X505135Y134929D01*
X505216Y135016D01*
X505236Y135051D01*
X505261Y135082D01*
X505312Y135190D01*
X505370Y135294D01*
X505380Y135334D01*
X505397Y135370D01*
X505419Y135487D01*
X505449Y135602D01*
X505453Y135663D01*
X505457Y135683D01*
X505455Y135703D01*
X505459Y135763D01*
X505459Y159512D01*
X505444Y159630D01*
X505437Y159749D01*
X505424Y159787D01*
X505419Y159828D01*
X505376Y159938D01*
X505339Y160051D01*
X505317Y160086D01*
X505302Y160123D01*
X505233Y160219D01*
X505169Y160320D01*
X505139Y160348D01*
X505116Y160381D01*
X505024Y160457D01*
X504937Y160538D01*
X504902Y160558D01*
X504871Y160583D01*
X504763Y160634D01*
X504659Y160692D01*
X504619Y160702D01*
X504583Y160719D01*
X504466Y160741D01*
X504351Y160771D01*
X504291Y160775D01*
X504271Y160779D01*
X504250Y160777D01*
X504190Y160781D01*
X504189Y160781D01*
X504189Y201423D01*
X504190Y201423D01*
X504308Y201438D01*
X504427Y201445D01*
X504465Y201458D01*
X504506Y201463D01*
X504616Y201506D01*
X504729Y201543D01*
X504764Y201565D01*
X504801Y201580D01*
X504897Y201650D01*
X504998Y201713D01*
X505026Y201743D01*
X505059Y201766D01*
X505135Y201858D01*
X505216Y201945D01*
X505236Y201980D01*
X505261Y202011D01*
X505312Y202119D01*
X505370Y202223D01*
X505380Y202263D01*
X505397Y202299D01*
X505419Y202416D01*
X505449Y202531D01*
X505453Y202592D01*
X505457Y202612D01*
X505455Y202632D01*
X505459Y202692D01*
X505459Y226441D01*
X505444Y226559D01*
X505437Y226678D01*
X505424Y226716D01*
X505419Y226757D01*
X505376Y226867D01*
X505339Y226980D01*
X505317Y227015D01*
X505302Y227052D01*
X505233Y227148D01*
X505169Y227249D01*
X505139Y227277D01*
X505116Y227310D01*
X505024Y227386D01*
X504937Y227467D01*
X504902Y227487D01*
X504871Y227512D01*
X504763Y227563D01*
X504659Y227621D01*
X504619Y227631D01*
X504583Y227648D01*
X504466Y227670D01*
X504351Y227700D01*
X504291Y227704D01*
X504271Y227708D01*
X504250Y227706D01*
X504190Y227710D01*
X504189Y227710D01*
X504189Y321310D01*
X504186Y321330D01*
X504188Y321349D01*
X504166Y321451D01*
X504150Y321553D01*
X504140Y321570D01*
X504136Y321590D01*
X504083Y321679D01*
X504034Y321770D01*
X504020Y321784D01*
X504010Y321801D01*
X503931Y321868D01*
X503856Y321940D01*
X503838Y321948D01*
X503823Y321961D01*
X503727Y322000D01*
X503633Y322043D01*
X503613Y322045D01*
X503595Y322053D01*
X503428Y322071D01*
X496151Y322071D01*
X496036Y322052D01*
X495920Y322035D01*
X495915Y322033D01*
X495909Y322032D01*
X495806Y321977D01*
X495701Y321924D01*
X495697Y321919D01*
X495691Y321916D01*
X495611Y321832D01*
X495529Y321748D01*
X495525Y321742D01*
X495522Y321738D01*
X495514Y321721D01*
X495459Y321621D01*
X492346Y318509D01*
X492346Y318508D01*
X425928Y252090D01*
X425875Y252016D01*
X425815Y251946D01*
X425803Y251916D01*
X425784Y251890D01*
X425757Y251803D01*
X425723Y251718D01*
X425719Y251677D01*
X425712Y251655D01*
X425713Y251623D01*
X425705Y251552D01*
X425705Y176425D01*
X425719Y176335D01*
X425727Y176244D01*
X425739Y176214D01*
X425744Y176182D01*
X425787Y176101D01*
X425823Y176017D01*
X425849Y175985D01*
X425860Y175965D01*
X425883Y175942D01*
X425928Y175887D01*
X432877Y168937D01*
X432931Y168899D01*
X432977Y168853D01*
X433003Y168839D01*
X446179Y155663D01*
X447803Y151742D01*
X447803Y113688D01*
X447607Y113215D01*
X447592Y113151D01*
X447567Y113090D01*
X447558Y113007D01*
X447551Y112975D01*
X447552Y112956D01*
X447549Y112924D01*
X447549Y72808D01*
X445925Y68887D01*
X391422Y14384D01*
X388313Y11275D01*
X384392Y9651D01*
X286168Y9651D01*
X282247Y11275D01*
X279245Y14277D01*
X277621Y18198D01*
X277621Y22442D01*
X279245Y26363D01*
X282247Y29365D01*
X286168Y30989D01*
X377536Y30989D01*
X377626Y31003D01*
X377717Y31011D01*
X377746Y31023D01*
X377778Y31028D01*
X377859Y31071D01*
X377943Y31107D01*
X377975Y31133D01*
X377996Y31144D01*
X378018Y31167D01*
X378074Y31212D01*
X425988Y79126D01*
X426031Y79186D01*
X426072Y79229D01*
X426079Y79244D01*
X426101Y79270D01*
X426113Y79300D01*
X426132Y79326D01*
X426159Y79413D01*
X426166Y79430D01*
X426176Y79452D01*
X426176Y79457D01*
X426193Y79498D01*
X426197Y79539D01*
X426204Y79561D01*
X426203Y79593D01*
X426211Y79664D01*
X426211Y117678D01*
X426407Y118152D01*
X426422Y118216D01*
X426447Y118276D01*
X426456Y118359D01*
X426463Y118391D01*
X426462Y118411D01*
X426465Y118443D01*
X426465Y144885D01*
X426451Y144975D01*
X426443Y145066D01*
X426431Y145096D01*
X426426Y145128D01*
X426383Y145209D01*
X426347Y145293D01*
X426321Y145325D01*
X426310Y145345D01*
X426287Y145368D01*
X426242Y145423D01*
X421071Y150595D01*
X421017Y150633D01*
X420971Y150679D01*
X420945Y150693D01*
X405991Y165647D01*
X404367Y169568D01*
X404367Y258408D01*
X405991Y262329D01*
X409100Y265437D01*
X409100Y265438D01*
X464434Y320772D01*
X464476Y320830D01*
X464525Y320882D01*
X464547Y320929D01*
X464577Y320971D01*
X464598Y321040D01*
X464629Y321105D01*
X464634Y321157D01*
X464650Y321207D01*
X464648Y321278D01*
X464656Y321349D01*
X464645Y321400D01*
X464643Y321452D01*
X464619Y321520D01*
X464604Y321590D01*
X464577Y321635D01*
X464559Y321683D01*
X464514Y321739D01*
X464477Y321801D01*
X464438Y321835D01*
X464405Y321875D01*
X464345Y321914D01*
X464290Y321961D01*
X464242Y321980D01*
X464198Y322008D01*
X464129Y322026D01*
X464062Y322053D01*
X463991Y322061D01*
X463960Y322069D01*
X463936Y322067D01*
X463896Y322071D01*
X343310Y322071D01*
X343239Y322060D01*
X343167Y322058D01*
X343118Y322040D01*
X343067Y322032D01*
X343004Y321998D01*
X342936Y321973D01*
X342896Y321941D01*
X342850Y321916D01*
X342800Y321865D01*
X342744Y321820D01*
X342716Y321776D01*
X342680Y321738D01*
X342650Y321673D01*
X342611Y321613D01*
X342599Y321562D01*
X342577Y321515D01*
X342569Y321444D01*
X342551Y321374D01*
X342555Y321322D01*
X342550Y321271D01*
X342565Y321200D01*
X342570Y321129D01*
X342591Y321081D01*
X342602Y321030D01*
X342639Y320969D01*
X342667Y320903D01*
X342712Y320847D01*
X342728Y320819D01*
X342746Y320804D01*
X342772Y320772D01*
X344019Y319524D01*
X344905Y317387D01*
X344905Y315073D01*
X344019Y312936D01*
X342384Y311301D01*
X340247Y310415D01*
X337933Y310415D01*
X335796Y311301D01*
X334161Y312936D01*
X333275Y315073D01*
X333275Y317387D01*
X334161Y319524D01*
X335408Y320772D01*
X335450Y320830D01*
X335500Y320882D01*
X335522Y320929D01*
X335552Y320971D01*
X335573Y321040D01*
X335603Y321105D01*
X335609Y321157D01*
X335624Y321207D01*
X335622Y321278D01*
X335630Y321349D01*
X335619Y321400D01*
X335618Y321452D01*
X335593Y321520D01*
X335578Y321590D01*
X335551Y321634D01*
X335534Y321683D01*
X335489Y321739D01*
X335452Y321801D01*
X335412Y321835D01*
X335380Y321875D01*
X335320Y321914D01*
X335265Y321961D01*
X335217Y321980D01*
X335173Y322008D01*
X335103Y322026D01*
X335037Y322053D01*
X334966Y322061D01*
X334934Y322069D01*
X334911Y322067D01*
X334870Y322071D01*
X313181Y322071D01*
X313181Y339090D01*
X313178Y339110D01*
X313180Y339129D01*
X313158Y339231D01*
X313142Y339333D01*
X313132Y339350D01*
X313128Y339370D01*
X313075Y339459D01*
X313026Y339550D01*
X313012Y339564D01*
X313002Y339581D01*
X312923Y339648D01*
X312848Y339720D01*
X312830Y339728D01*
X312815Y339741D01*
X312719Y339780D01*
X312625Y339823D01*
X312605Y339825D01*
X312587Y339833D01*
X312420Y339851D01*
X309879Y339851D01*
X309879Y342647D01*
X319278Y342647D01*
X319298Y342650D01*
X319317Y342648D01*
X319419Y342670D01*
X319521Y342687D01*
X319538Y342696D01*
X319558Y342700D01*
X319647Y342753D01*
X319738Y342802D01*
X319752Y342816D01*
X319769Y342826D01*
X319836Y342905D01*
X319907Y342980D01*
X319916Y342998D01*
X319929Y343013D01*
X319967Y343109D01*
X320011Y343203D01*
X320013Y343223D01*
X320021Y343241D01*
X320039Y343408D01*
X320039Y344171D01*
X320041Y344171D01*
X320041Y343408D01*
X320044Y343388D01*
X320042Y343369D01*
X320064Y343267D01*
X320081Y343165D01*
X320090Y343148D01*
X320094Y343128D01*
X320147Y343039D01*
X320196Y342948D01*
X320210Y342934D01*
X320220Y342917D01*
X320299Y342850D01*
X320374Y342779D01*
X320392Y342770D01*
X320407Y342757D01*
X320503Y342718D01*
X320597Y342675D01*
X320617Y342673D01*
X320635Y342665D01*
X320802Y342647D01*
X330201Y342647D01*
X330201Y335750D01*
X329944Y334129D01*
X329944Y334049D01*
X329936Y333971D01*
X329945Y333927D01*
X329945Y333883D01*
X329971Y333808D01*
X329988Y333730D01*
X330011Y333692D01*
X330025Y333650D01*
X330073Y333587D01*
X330114Y333519D01*
X330148Y333490D01*
X330175Y333455D01*
X330241Y333411D01*
X330301Y333359D01*
X330342Y333343D01*
X330379Y333318D01*
X330455Y333297D01*
X330529Y333267D01*
X330587Y333261D01*
X330616Y333253D01*
X330644Y333255D01*
X330696Y333249D01*
X345440Y333249D01*
X345460Y333252D01*
X345479Y333250D01*
X345581Y333272D01*
X345683Y333289D01*
X345700Y333298D01*
X345720Y333302D01*
X345809Y333355D01*
X345900Y333404D01*
X345914Y333418D01*
X345931Y333428D01*
X345998Y333507D01*
X346070Y333582D01*
X346078Y333600D01*
X346091Y333615D01*
X346130Y333711D01*
X346173Y333805D01*
X346175Y333825D01*
X346183Y333843D01*
X346201Y334010D01*
X346201Y1011428D01*
X346198Y1011448D01*
X346200Y1011467D01*
X346178Y1011569D01*
X346162Y1011671D01*
X346152Y1011688D01*
X346148Y1011708D01*
X346095Y1011797D01*
X346046Y1011888D01*
X346032Y1011902D01*
X346022Y1011919D01*
X345943Y1011986D01*
X345868Y1012058D01*
X345850Y1012066D01*
X345835Y1012079D01*
X345739Y1012118D01*
X345645Y1012161D01*
X345625Y1012163D01*
X345607Y1012171D01*
X345440Y1012189D01*
X4572Y1012189D01*
X4552Y1012186D01*
X4533Y1012188D01*
X4431Y1012166D01*
X4329Y1012150D01*
X4312Y1012140D01*
X4292Y1012136D01*
X4203Y1012083D01*
X4112Y1012034D01*
X4098Y1012020D01*
X4081Y1012010D01*
X4014Y1011931D01*
X3942Y1011856D01*
X3934Y1011838D01*
X3921Y1011823D01*
X3882Y1011727D01*
X3839Y1011633D01*
X3837Y1011613D01*
X3829Y1011595D01*
X3811Y1011428D01*
X3811Y914018D01*
X2540Y914018D01*
X2422Y914003D01*
X2303Y913996D01*
X2265Y913983D01*
X2224Y913978D01*
X2114Y913935D01*
X2001Y913898D01*
X1966Y913876D01*
X1929Y913861D01*
X1833Y913792D01*
X1732Y913728D01*
X1704Y913698D01*
X1671Y913675D01*
X1596Y913583D01*
X1514Y913496D01*
X1494Y913461D01*
X1469Y913430D01*
X1418Y913322D01*
X1360Y913218D01*
X1350Y913178D01*
X1333Y913142D01*
X1311Y913025D01*
X1281Y912910D01*
X1277Y912850D01*
X1273Y912830D01*
X1275Y912809D01*
X1271Y912749D01*
X1271Y889000D01*
X1286Y888882D01*
X1293Y888763D01*
X1306Y888725D01*
X1311Y888684D01*
X1354Y888574D01*
X1391Y888461D01*
X1413Y888426D01*
X1428Y888389D01*
X1498Y888293D01*
X1561Y888192D01*
X1591Y888164D01*
X1614Y888131D01*
X1706Y888056D01*
X1793Y887974D01*
X1828Y887954D01*
X1859Y887929D01*
X1967Y887878D01*
X2071Y887820D01*
X2111Y887810D01*
X2147Y887793D01*
X2264Y887771D01*
X2379Y887741D01*
X2440Y887737D01*
X2460Y887733D01*
X2480Y887735D01*
X2540Y887731D01*
X3811Y887731D01*
X3811Y847089D01*
X2540Y847089D01*
X2422Y847074D01*
X2303Y847067D01*
X2265Y847054D01*
X2224Y847049D01*
X2114Y847006D01*
X2001Y846969D01*
X1966Y846947D01*
X1929Y846932D01*
X1833Y846863D01*
X1732Y846799D01*
X1704Y846769D01*
X1671Y846746D01*
X1596Y846654D01*
X1514Y846567D01*
X1494Y846532D01*
X1469Y846501D01*
X1418Y846393D01*
X1360Y846289D01*
X1350Y846249D01*
X1333Y846213D01*
X1311Y846096D01*
X1281Y845981D01*
X1277Y845921D01*
X1273Y845901D01*
X1275Y845880D01*
X1271Y845820D01*
X1271Y822071D01*
X1286Y821953D01*
X1293Y821834D01*
X1306Y821796D01*
X1311Y821755D01*
X1354Y821645D01*
X1391Y821532D01*
X1413Y821497D01*
X1428Y821460D01*
X1498Y821364D01*
X1561Y821263D01*
X1591Y821235D01*
X1614Y821202D01*
X1706Y821127D01*
X1793Y821045D01*
X1828Y821025D01*
X1859Y821000D01*
X1967Y820949D01*
X2071Y820891D01*
X2111Y820881D01*
X2147Y820864D01*
X2264Y820842D01*
X2379Y820812D01*
X2440Y820808D01*
X2460Y820804D01*
X2480Y820806D01*
X2540Y820802D01*
X3811Y820802D01*
X3811Y724788D01*
X2540Y724788D01*
X2422Y724773D01*
X2303Y724766D01*
X2265Y724753D01*
X2224Y724748D01*
X2114Y724705D01*
X2001Y724668D01*
X1966Y724646D01*
X1929Y724631D01*
X1833Y724562D01*
X1732Y724498D01*
X1704Y724468D01*
X1671Y724445D01*
X1596Y724353D01*
X1514Y724266D01*
X1494Y724231D01*
X1469Y724200D01*
X1418Y724092D01*
X1360Y723988D01*
X1350Y723948D01*
X1333Y723912D01*
X1311Y723795D01*
X1281Y723680D01*
X1277Y723620D01*
X1273Y723600D01*
X1275Y723579D01*
X1271Y723519D01*
X1271Y699770D01*
X1286Y699652D01*
X1293Y699533D01*
X1306Y699495D01*
X1311Y699454D01*
X1354Y699344D01*
X1391Y699231D01*
X1413Y699196D01*
X1428Y699159D01*
X1498Y699063D01*
X1561Y698962D01*
X1591Y698934D01*
X1614Y698901D01*
X1706Y698826D01*
X1793Y698744D01*
X1828Y698724D01*
X1859Y698699D01*
X1967Y698648D01*
X2071Y698590D01*
X2111Y698580D01*
X2147Y698563D01*
X2264Y698541D01*
X2379Y698511D01*
X2440Y698507D01*
X2460Y698503D01*
X2480Y698505D01*
X2540Y698501D01*
X3811Y698501D01*
X3811Y657859D01*
X2540Y657859D01*
X2422Y657844D01*
X2303Y657837D01*
X2265Y657824D01*
X2224Y657819D01*
X2114Y657776D01*
X2001Y657739D01*
X1966Y657717D01*
X1929Y657702D01*
X1833Y657633D01*
X1732Y657569D01*
X1704Y657539D01*
X1671Y657516D01*
X1596Y657424D01*
X1514Y657337D01*
X1494Y657302D01*
X1469Y657271D01*
X1418Y657163D01*
X1360Y657059D01*
X1350Y657019D01*
X1333Y656983D01*
X1311Y656866D01*
X1281Y656751D01*
X1277Y656691D01*
X1273Y656671D01*
X1275Y656650D01*
X1271Y656590D01*
X1271Y632841D01*
X1286Y632723D01*
X1293Y632604D01*
X1306Y632566D01*
X1311Y632525D01*
X1354Y632415D01*
X1391Y632302D01*
X1413Y632267D01*
X1428Y632230D01*
X1498Y632134D01*
X1561Y632033D01*
X1591Y632005D01*
X1614Y631972D01*
X1706Y631897D01*
X1793Y631815D01*
X1828Y631795D01*
X1859Y631770D01*
X1967Y631719D01*
X2071Y631661D01*
X2111Y631651D01*
X2147Y631634D01*
X2264Y631612D01*
X2379Y631582D01*
X2440Y631578D01*
X2460Y631574D01*
X2480Y631576D01*
X2540Y631572D01*
X3811Y631572D01*
X3811Y334010D01*
X3814Y333990D01*
X3812Y333971D01*
X3834Y333869D01*
X3850Y333767D01*
X3860Y333750D01*
X3864Y333730D01*
X3917Y333641D01*
X3966Y333550D01*
X3980Y333536D01*
X3990Y333519D01*
X4069Y333452D01*
X4144Y333381D01*
X4162Y333372D01*
X4177Y333359D01*
X4273Y333320D01*
X4367Y333277D01*
X4387Y333275D01*
X4405Y333267D01*
X4572Y333249D01*
X130920Y333249D01*
X130966Y333256D01*
X131012Y333254D01*
X131086Y333276D01*
X131163Y333289D01*
X131204Y333310D01*
X131248Y333323D01*
X131312Y333367D01*
X131381Y333404D01*
X131412Y333437D01*
X131450Y333463D01*
X131496Y333525D01*
X131550Y333582D01*
X131569Y333624D01*
X131597Y333660D01*
X131621Y333734D01*
X131654Y333805D01*
X131659Y333851D01*
X131673Y333894D01*
X131672Y333972D01*
X131681Y334049D01*
X131671Y334094D01*
X131670Y334140D01*
X131632Y334272D01*
X131628Y334290D01*
X131626Y334294D01*
X131624Y334301D01*
X131571Y334428D01*
X131571Y347697D01*
X131557Y347787D01*
X131549Y347878D01*
X131537Y347908D01*
X131532Y347940D01*
X131489Y348021D01*
X131453Y348105D01*
X131427Y348137D01*
X131416Y348158D01*
X131393Y348180D01*
X131384Y348191D01*
X131377Y348203D01*
X131369Y348210D01*
X131348Y348236D01*
X94233Y385351D01*
X94233Y878299D01*
X97284Y881350D01*
X130737Y914803D01*
X130805Y914898D01*
X130875Y914992D01*
X130877Y914998D01*
X130881Y915003D01*
X130915Y915114D01*
X130951Y915226D01*
X130951Y915232D01*
X130953Y915238D01*
X130950Y915355D01*
X130949Y915472D01*
X130947Y915479D01*
X130947Y915484D01*
X130940Y915501D01*
X130902Y915633D01*
X130682Y916164D01*
X130682Y920256D01*
X132248Y924038D01*
X135142Y926932D01*
X138924Y928498D01*
X143016Y928498D01*
X146798Y926932D01*
X149692Y924038D01*
X151258Y920256D01*
X151258Y916164D01*
X149692Y912382D01*
X146798Y909488D01*
X143016Y907922D01*
X138924Y907922D01*
X138393Y908142D01*
X138279Y908169D01*
X138166Y908197D01*
X138159Y908197D01*
X138153Y908198D01*
X138037Y908187D01*
X137920Y908178D01*
X137915Y908176D01*
X137908Y908175D01*
X137801Y908127D01*
X137694Y908082D01*
X137688Y908077D01*
X137684Y908075D01*
X137670Y908063D01*
X137563Y907977D01*
X104110Y874524D01*
X104057Y874450D01*
X103997Y874380D01*
X103985Y874350D01*
X103966Y874324D01*
X103939Y874237D01*
X103905Y874152D01*
X103901Y874111D01*
X103894Y874089D01*
X103895Y874057D01*
X103887Y873985D01*
X103887Y389665D01*
X103901Y389575D01*
X103909Y389484D01*
X103921Y389454D01*
X103926Y389422D01*
X103969Y389341D01*
X104005Y389257D01*
X104031Y389225D01*
X104042Y389205D01*
X104065Y389182D01*
X104110Y389126D01*
X133761Y359475D01*
X133777Y359464D01*
X133789Y359448D01*
X133877Y359392D01*
X133961Y359332D01*
X133979Y359326D01*
X133996Y359315D01*
X134097Y359290D01*
X134196Y359259D01*
X134216Y359260D01*
X134235Y359255D01*
X134338Y359263D01*
X134441Y359266D01*
X134460Y359273D01*
X134480Y359274D01*
X134575Y359315D01*
X134673Y359350D01*
X134688Y359363D01*
X134706Y359370D01*
X134837Y359475D01*
X136197Y360835D01*
X140118Y362459D01*
X144362Y362459D01*
X148283Y360835D01*
X151285Y357833D01*
X152909Y353912D01*
X152909Y334428D01*
X152856Y334301D01*
X152846Y334257D01*
X152826Y334215D01*
X152818Y334138D01*
X152800Y334062D01*
X152804Y334016D01*
X152799Y333971D01*
X152816Y333894D01*
X152823Y333817D01*
X152842Y333775D01*
X152852Y333730D01*
X152892Y333663D01*
X152923Y333592D01*
X152954Y333559D01*
X152978Y333519D01*
X153037Y333468D01*
X153090Y333411D01*
X153130Y333389D01*
X153165Y333359D01*
X153237Y333330D01*
X153305Y333293D01*
X153350Y333284D01*
X153393Y333267D01*
X153529Y333252D01*
X153547Y333249D01*
X153552Y333250D01*
X153560Y333249D01*
X156320Y333249D01*
X156366Y333256D01*
X156412Y333254D01*
X156486Y333276D01*
X156563Y333289D01*
X156604Y333310D01*
X156648Y333323D01*
X156712Y333367D01*
X156781Y333404D01*
X156812Y333437D01*
X156850Y333463D01*
X156896Y333525D01*
X156950Y333582D01*
X156969Y333624D01*
X156997Y333660D01*
X157021Y333734D01*
X157054Y333805D01*
X157059Y333851D01*
X157073Y333894D01*
X157072Y333972D01*
X157081Y334049D01*
X157071Y334094D01*
X157070Y334140D01*
X157032Y334272D01*
X157028Y334290D01*
X157026Y334294D01*
X157024Y334301D01*
X156971Y334428D01*
X156971Y353912D01*
X158595Y357833D01*
X161597Y360835D01*
X162343Y361144D01*
X162443Y361205D01*
X162543Y361265D01*
X162547Y361270D01*
X162552Y361273D01*
X162627Y361363D01*
X162703Y361452D01*
X162705Y361458D01*
X162709Y361463D01*
X162751Y361571D01*
X162795Y361680D01*
X162796Y361688D01*
X162797Y361693D01*
X162798Y361711D01*
X162813Y361847D01*
X162813Y607285D01*
X162799Y607375D01*
X162791Y607466D01*
X162779Y607496D01*
X162774Y607528D01*
X162731Y607609D01*
X162695Y607693D01*
X162669Y607725D01*
X162658Y607745D01*
X162635Y607768D01*
X162629Y607775D01*
X162620Y607790D01*
X162611Y607798D01*
X162590Y607824D01*
X151348Y619066D01*
X151269Y619123D01*
X151194Y619185D01*
X151169Y619195D01*
X151148Y619210D01*
X151055Y619238D01*
X150964Y619273D01*
X150938Y619274D01*
X150913Y619282D01*
X150815Y619280D01*
X150718Y619284D01*
X150693Y619276D01*
X150667Y619276D01*
X150575Y619242D01*
X150482Y619215D01*
X150461Y619200D01*
X150436Y619191D01*
X150360Y619130D01*
X150280Y619075D01*
X150264Y619054D01*
X150244Y619038D01*
X150191Y618956D01*
X150133Y618878D01*
X150125Y618853D01*
X150111Y618831D01*
X150087Y618736D01*
X150057Y618644D01*
X150057Y618618D01*
X150051Y618592D01*
X150058Y618495D01*
X150059Y618398D01*
X150068Y618366D01*
X150070Y618347D01*
X150083Y618317D01*
X150106Y618237D01*
X151258Y615456D01*
X151258Y611364D01*
X149692Y607582D01*
X146798Y604688D01*
X143016Y603122D01*
X138924Y603122D01*
X135142Y604688D01*
X132248Y607582D01*
X130682Y611364D01*
X130682Y615456D01*
X132248Y619238D01*
X132995Y619984D01*
X133037Y620042D01*
X133086Y620094D01*
X133108Y620141D01*
X133138Y620183D01*
X133159Y620252D01*
X133190Y620317D01*
X133195Y620369D01*
X133211Y620419D01*
X133209Y620490D01*
X133217Y620561D01*
X133206Y620612D01*
X133204Y620664D01*
X133180Y620732D01*
X133164Y620802D01*
X133138Y620846D01*
X133120Y620895D01*
X133075Y620951D01*
X133038Y621013D01*
X132999Y621047D01*
X132966Y621087D01*
X132906Y621126D01*
X132851Y621173D01*
X132803Y621192D01*
X132759Y621220D01*
X132690Y621238D01*
X132623Y621265D01*
X132552Y621273D01*
X132521Y621281D01*
X132497Y621279D01*
X132456Y621283D01*
X127541Y621283D01*
X110743Y638081D01*
X110743Y696689D01*
X130459Y716405D01*
X130505Y716469D01*
X130526Y716491D01*
X130530Y716500D01*
X130572Y716549D01*
X130584Y716579D01*
X130603Y716605D01*
X130630Y716692D01*
X130664Y716777D01*
X130668Y716818D01*
X130675Y716840D01*
X130674Y716872D01*
X130682Y716944D01*
X130682Y717056D01*
X132248Y720838D01*
X135142Y723732D01*
X138924Y725298D01*
X143016Y725298D01*
X146798Y723732D01*
X149692Y720838D01*
X151258Y717056D01*
X151258Y712964D01*
X149692Y709182D01*
X146798Y706288D01*
X143016Y704722D01*
X138924Y704722D01*
X135142Y706288D01*
X135107Y706324D01*
X135091Y706336D01*
X135078Y706351D01*
X134991Y706407D01*
X134907Y706468D01*
X134888Y706474D01*
X134871Y706484D01*
X134771Y706510D01*
X134672Y706540D01*
X134652Y706540D01*
X134633Y706544D01*
X134530Y706536D01*
X134426Y706534D01*
X134407Y706527D01*
X134387Y706525D01*
X134293Y706485D01*
X134195Y706449D01*
X134179Y706437D01*
X134161Y706429D01*
X134030Y706324D01*
X120620Y692914D01*
X120567Y692840D01*
X120507Y692770D01*
X120495Y692740D01*
X120476Y692714D01*
X120449Y692627D01*
X120415Y692542D01*
X120411Y692501D01*
X120404Y692479D01*
X120405Y692447D01*
X120397Y692375D01*
X120397Y642395D01*
X120411Y642305D01*
X120419Y642214D01*
X120431Y642184D01*
X120436Y642152D01*
X120479Y642071D01*
X120515Y641987D01*
X120541Y641955D01*
X120552Y641935D01*
X120575Y641912D01*
X120620Y641856D01*
X131316Y631160D01*
X131390Y631107D01*
X131460Y631047D01*
X131490Y631035D01*
X131516Y631016D01*
X131603Y630989D01*
X131688Y630955D01*
X131729Y630951D01*
X131751Y630944D01*
X131783Y630945D01*
X131855Y630937D01*
X132456Y630937D01*
X132527Y630948D01*
X132599Y630950D01*
X132648Y630968D01*
X132699Y630976D01*
X132762Y631010D01*
X132830Y631035D01*
X132870Y631067D01*
X132917Y631092D01*
X132966Y631144D01*
X133022Y631188D01*
X133050Y631232D01*
X133086Y631270D01*
X133116Y631335D01*
X133155Y631395D01*
X133168Y631446D01*
X133190Y631493D01*
X133197Y631564D01*
X133215Y631634D01*
X133211Y631686D01*
X133217Y631737D01*
X133201Y631808D01*
X133196Y631879D01*
X133175Y631927D01*
X133164Y631978D01*
X133128Y632039D01*
X133099Y632105D01*
X133055Y632161D01*
X133038Y632189D01*
X133020Y632204D01*
X132995Y632236D01*
X132248Y632982D01*
X130682Y636764D01*
X130682Y640856D01*
X132248Y644638D01*
X135142Y647532D01*
X138924Y649098D01*
X143016Y649098D01*
X146798Y647532D01*
X149692Y644638D01*
X151258Y640856D01*
X151258Y636764D01*
X149692Y632982D01*
X148945Y632236D01*
X148903Y632178D01*
X148854Y632126D01*
X148832Y632079D01*
X148802Y632037D01*
X148781Y631968D01*
X148750Y631903D01*
X148745Y631851D01*
X148729Y631801D01*
X148731Y631730D01*
X148723Y631659D01*
X148734Y631608D01*
X148736Y631556D01*
X148760Y631488D01*
X148776Y631418D01*
X148802Y631373D01*
X148820Y631325D01*
X148865Y631269D01*
X148902Y631207D01*
X148941Y631173D01*
X148974Y631133D01*
X149034Y631094D01*
X149089Y631047D01*
X149137Y631028D01*
X149181Y631000D01*
X149250Y630982D01*
X149317Y630955D01*
X149388Y630947D01*
X149419Y630939D01*
X149443Y630941D01*
X149484Y630937D01*
X153129Y630937D01*
X172467Y611599D01*
X172467Y361847D01*
X172486Y361732D01*
X172503Y361616D01*
X172505Y361610D01*
X172506Y361604D01*
X172561Y361502D01*
X172614Y361397D01*
X172619Y361392D01*
X172622Y361387D01*
X172706Y361307D01*
X172790Y361225D01*
X172796Y361221D01*
X172800Y361218D01*
X172817Y361210D01*
X172937Y361144D01*
X173683Y360835D01*
X176685Y357833D01*
X178309Y353912D01*
X178309Y334428D01*
X178256Y334301D01*
X178246Y334257D01*
X178226Y334215D01*
X178218Y334138D01*
X178200Y334062D01*
X178204Y334016D01*
X178199Y333971D01*
X178216Y333894D01*
X178223Y333817D01*
X178242Y333775D01*
X178252Y333730D01*
X178292Y333663D01*
X178323Y333592D01*
X178354Y333559D01*
X178378Y333519D01*
X178437Y333468D01*
X178490Y333411D01*
X178530Y333389D01*
X178565Y333359D01*
X178637Y333330D01*
X178705Y333293D01*
X178750Y333284D01*
X178793Y333267D01*
X178929Y333252D01*
X178947Y333249D01*
X178952Y333250D01*
X178960Y333249D01*
X181720Y333249D01*
X181766Y333256D01*
X181812Y333254D01*
X181886Y333276D01*
X181963Y333289D01*
X182004Y333310D01*
X182048Y333323D01*
X182112Y333367D01*
X182181Y333404D01*
X182212Y333437D01*
X182250Y333463D01*
X182296Y333525D01*
X182350Y333582D01*
X182369Y333624D01*
X182397Y333660D01*
X182421Y333734D01*
X182454Y333805D01*
X182459Y333851D01*
X182473Y333894D01*
X182472Y333972D01*
X182481Y334049D01*
X182471Y334094D01*
X182470Y334140D01*
X182432Y334272D01*
X182428Y334290D01*
X182426Y334294D01*
X182424Y334301D01*
X182371Y334428D01*
X182371Y353912D01*
X183995Y357833D01*
X186997Y360835D01*
X187743Y361144D01*
X187843Y361205D01*
X187943Y361265D01*
X187947Y361270D01*
X187952Y361273D01*
X188027Y361363D01*
X188103Y361452D01*
X188105Y361458D01*
X188109Y361463D01*
X188151Y361571D01*
X188195Y361680D01*
X188196Y361688D01*
X188197Y361693D01*
X188198Y361711D01*
X188213Y361847D01*
X188213Y635225D01*
X188199Y635315D01*
X188191Y635406D01*
X188179Y635436D01*
X188174Y635468D01*
X188131Y635549D01*
X188095Y635633D01*
X188069Y635665D01*
X188058Y635685D01*
X188035Y635708D01*
X187990Y635764D01*
X179285Y644469D01*
X178644Y646862D01*
X178604Y646949D01*
X178572Y647039D01*
X178554Y647061D01*
X178542Y647087D01*
X178478Y647156D01*
X178418Y647231D01*
X178394Y647246D01*
X178375Y647267D01*
X178291Y647312D01*
X178211Y647364D01*
X178184Y647371D01*
X178159Y647384D01*
X178065Y647401D01*
X177973Y647424D01*
X177944Y647422D01*
X177917Y647427D01*
X177822Y647412D01*
X177727Y647405D01*
X177701Y647394D01*
X177673Y647389D01*
X177588Y647346D01*
X177501Y647308D01*
X177473Y647286D01*
X177455Y647277D01*
X177432Y647253D01*
X177370Y647204D01*
X176346Y646179D01*
X172105Y645043D01*
X167864Y646179D01*
X167798Y646245D01*
X167667Y646376D01*
X164609Y649434D01*
X163473Y653675D01*
X163567Y654025D01*
X163576Y654119D01*
X163593Y654213D01*
X163589Y654241D01*
X163591Y654269D01*
X163570Y654362D01*
X163556Y654456D01*
X163543Y654482D01*
X163536Y654509D01*
X163487Y654590D01*
X163443Y654675D01*
X163423Y654695D01*
X163408Y654719D01*
X163335Y654780D01*
X163266Y654846D01*
X163241Y654859D01*
X163219Y654877D01*
X163131Y654911D01*
X163045Y654952D01*
X163016Y654956D01*
X162990Y654966D01*
X162895Y654971D01*
X162800Y654982D01*
X162765Y654977D01*
X162745Y654978D01*
X162713Y654969D01*
X162635Y654957D01*
X162285Y654863D01*
X158044Y655999D01*
X157978Y656065D01*
X157844Y656199D01*
X154789Y659254D01*
X153653Y663495D01*
X154789Y667736D01*
X155814Y668760D01*
X155869Y668837D01*
X155930Y668911D01*
X155941Y668937D01*
X155957Y668960D01*
X155985Y669051D01*
X156020Y669140D01*
X156021Y669168D01*
X156030Y669195D01*
X156027Y669290D01*
X156032Y669385D01*
X156024Y669412D01*
X156023Y669441D01*
X155990Y669530D01*
X155964Y669622D01*
X155948Y669645D01*
X155939Y669672D01*
X155879Y669746D01*
X155825Y669825D01*
X155803Y669842D01*
X155785Y669864D01*
X155705Y669915D01*
X155629Y669973D01*
X155596Y669985D01*
X155578Y669997D01*
X155546Y670005D01*
X155472Y670034D01*
X153079Y670675D01*
X144377Y679377D01*
X144282Y679446D01*
X144188Y679515D01*
X144182Y679517D01*
X144177Y679521D01*
X144065Y679555D01*
X143954Y679591D01*
X143948Y679591D01*
X143942Y679593D01*
X143825Y679590D01*
X143708Y679589D01*
X143701Y679587D01*
X143696Y679587D01*
X143679Y679580D01*
X143547Y679542D01*
X143016Y679322D01*
X138924Y679322D01*
X135142Y680888D01*
X132248Y683782D01*
X130682Y687564D01*
X130682Y691656D01*
X132248Y695438D01*
X135142Y698332D01*
X138924Y699898D01*
X143016Y699898D01*
X146798Y698332D01*
X149692Y695438D01*
X151258Y691656D01*
X151258Y687564D01*
X151038Y687033D01*
X151011Y686919D01*
X150983Y686806D01*
X150983Y686799D01*
X150982Y686793D01*
X150993Y686677D01*
X151002Y686560D01*
X151004Y686555D01*
X151005Y686548D01*
X151053Y686441D01*
X151098Y686334D01*
X151103Y686328D01*
X151105Y686324D01*
X151117Y686310D01*
X151203Y686203D01*
X156781Y680625D01*
X156798Y680613D01*
X156810Y680597D01*
X156898Y680541D01*
X156981Y680481D01*
X157000Y680475D01*
X157017Y680464D01*
X157118Y680439D01*
X157216Y680409D01*
X157236Y680409D01*
X157256Y680404D01*
X157359Y680412D01*
X157462Y680415D01*
X157481Y680422D01*
X157501Y680423D01*
X157596Y680464D01*
X157693Y680499D01*
X157709Y680512D01*
X157727Y680520D01*
X157858Y680625D01*
X157923Y680689D01*
X157923Y680690D01*
X157934Y680701D01*
X162175Y681837D01*
X166416Y680701D01*
X166482Y680635D01*
X168036Y679081D01*
X168036Y679080D01*
X169670Y677446D01*
X170807Y673205D01*
X170713Y672856D01*
X170704Y672761D01*
X170687Y672667D01*
X170691Y672639D01*
X170689Y672611D01*
X170710Y672518D01*
X170724Y672424D01*
X170737Y672399D01*
X170744Y672371D01*
X170793Y672290D01*
X170837Y672205D01*
X170857Y672185D01*
X170872Y672161D01*
X170945Y672100D01*
X171014Y672034D01*
X171039Y672022D01*
X171061Y672003D01*
X171149Y671969D01*
X171235Y671928D01*
X171264Y671924D01*
X171290Y671914D01*
X171385Y671909D01*
X171480Y671898D01*
X171515Y671903D01*
X171535Y671902D01*
X171567Y671911D01*
X171645Y671923D01*
X171995Y672017D01*
X176236Y670881D01*
X179401Y667715D01*
X179425Y667691D01*
X179491Y667626D01*
X180627Y663385D01*
X180533Y663035D01*
X180524Y662941D01*
X180507Y662847D01*
X180512Y662819D01*
X180509Y662791D01*
X180530Y662698D01*
X180544Y662603D01*
X180557Y662578D01*
X180564Y662551D01*
X180613Y662470D01*
X180657Y662385D01*
X180677Y662365D01*
X180692Y662341D01*
X180765Y662280D01*
X180834Y662214D01*
X180859Y662201D01*
X180881Y662183D01*
X180969Y662149D01*
X181056Y662108D01*
X181084Y662104D01*
X181110Y662094D01*
X181205Y662089D01*
X181300Y662078D01*
X181335Y662083D01*
X181356Y662082D01*
X181387Y662091D01*
X181466Y662103D01*
X181815Y662197D01*
X186056Y661060D01*
X187680Y659437D01*
X189245Y657872D01*
X189311Y657806D01*
X190447Y653565D01*
X189311Y649324D01*
X189300Y649313D01*
X189235Y649248D01*
X189223Y649232D01*
X189207Y649219D01*
X189151Y649132D01*
X189091Y649048D01*
X189085Y649029D01*
X189074Y649012D01*
X189049Y648912D01*
X189019Y648813D01*
X189019Y648793D01*
X189014Y648774D01*
X189022Y648671D01*
X189025Y648567D01*
X189032Y648549D01*
X189033Y648529D01*
X189074Y648434D01*
X189109Y648336D01*
X189122Y648321D01*
X189130Y648302D01*
X189235Y648171D01*
X197867Y639539D01*
X197867Y361847D01*
X197886Y361732D01*
X197903Y361616D01*
X197905Y361610D01*
X197906Y361604D01*
X197961Y361502D01*
X198014Y361397D01*
X198019Y361392D01*
X198022Y361387D01*
X198106Y361307D01*
X198190Y361225D01*
X198196Y361221D01*
X198200Y361218D01*
X198217Y361210D01*
X198337Y361144D01*
X199083Y360835D01*
X202085Y357833D01*
X203709Y353912D01*
X203709Y334428D01*
X203656Y334301D01*
X203646Y334257D01*
X203626Y334215D01*
X203618Y334138D01*
X203600Y334062D01*
X203604Y334016D01*
X203599Y333971D01*
X203616Y333894D01*
X203623Y333817D01*
X203642Y333775D01*
X203652Y333730D01*
X203692Y333663D01*
X203723Y333592D01*
X203754Y333559D01*
X203778Y333519D01*
X203837Y333468D01*
X203890Y333411D01*
X203930Y333389D01*
X203965Y333359D01*
X204037Y333330D01*
X204105Y333293D01*
X204150Y333284D01*
X204193Y333267D01*
X204329Y333252D01*
X204347Y333249D01*
X204352Y333250D01*
X204360Y333249D01*
X207120Y333249D01*
X207166Y333256D01*
X207212Y333254D01*
X207286Y333276D01*
X207363Y333289D01*
X207404Y333310D01*
X207448Y333323D01*
X207512Y333367D01*
X207581Y333404D01*
X207612Y333437D01*
X207650Y333463D01*
X207696Y333525D01*
X207750Y333582D01*
X207769Y333624D01*
X207797Y333660D01*
X207821Y333734D01*
X207854Y333805D01*
X207859Y333851D01*
X207873Y333894D01*
X207872Y333972D01*
X207881Y334049D01*
X207871Y334094D01*
X207870Y334140D01*
X207832Y334272D01*
X207828Y334290D01*
X207826Y334294D01*
X207824Y334301D01*
X207771Y334428D01*
X207771Y353912D01*
X209395Y357833D01*
X212397Y360835D01*
X213143Y361144D01*
X213243Y361205D01*
X213343Y361265D01*
X213347Y361270D01*
X213352Y361273D01*
X213427Y361363D01*
X213503Y361452D01*
X213505Y361458D01*
X213509Y361463D01*
X213551Y361571D01*
X213595Y361680D01*
X213596Y361688D01*
X213597Y361693D01*
X213598Y361711D01*
X213613Y361847D01*
X213613Y617949D01*
X216664Y621000D01*
X217600Y621936D01*
X217739Y622075D01*
X220789Y625125D01*
X224828Y626207D01*
X224915Y626246D01*
X225004Y626279D01*
X225026Y626297D01*
X225052Y626308D01*
X225122Y626373D01*
X225196Y626433D01*
X225211Y626457D01*
X225232Y626476D01*
X225277Y626559D01*
X225329Y626640D01*
X225336Y626667D01*
X225349Y626692D01*
X225366Y626786D01*
X225389Y626878D01*
X225387Y626906D01*
X225392Y626934D01*
X225377Y627029D01*
X225370Y627123D01*
X225359Y627149D01*
X225355Y627177D01*
X225311Y627262D01*
X225274Y627350D01*
X225251Y627378D01*
X225242Y627396D01*
X225218Y627419D01*
X225169Y627481D01*
X223638Y629012D01*
X222502Y633252D01*
X223638Y637493D01*
X227936Y641791D01*
X232176Y642927D01*
X233951Y642452D01*
X234046Y642442D01*
X234140Y642426D01*
X234168Y642430D01*
X234196Y642427D01*
X234289Y642448D01*
X234383Y642463D01*
X234408Y642476D01*
X234436Y642482D01*
X234517Y642532D01*
X234602Y642575D01*
X234621Y642596D01*
X234645Y642610D01*
X234706Y642684D01*
X234773Y642752D01*
X234785Y642777D01*
X234803Y642799D01*
X234838Y642888D01*
X234879Y642974D01*
X234882Y643002D01*
X234893Y643028D01*
X234897Y643123D01*
X234909Y643218D01*
X234903Y643253D01*
X234904Y643274D01*
X234895Y643305D01*
X234883Y643384D01*
X234408Y645159D01*
X235544Y649399D01*
X236653Y650508D01*
X236785Y650640D01*
X239842Y653697D01*
X244083Y654833D01*
X248323Y653697D01*
X249854Y652166D01*
X249932Y652110D01*
X250005Y652049D01*
X250031Y652039D01*
X250054Y652023D01*
X250145Y651995D01*
X250234Y651960D01*
X250262Y651959D01*
X250289Y651950D01*
X250384Y651953D01*
X250479Y651948D01*
X250507Y651956D01*
X250535Y651957D01*
X250624Y651989D01*
X250716Y652015D01*
X250739Y652031D01*
X250766Y652041D01*
X250840Y652101D01*
X250919Y652155D01*
X250936Y652177D01*
X250958Y652195D01*
X251009Y652275D01*
X251067Y652351D01*
X251080Y652384D01*
X251091Y652402D01*
X251099Y652434D01*
X251128Y652507D01*
X252210Y656546D01*
X264701Y669037D01*
X283725Y669037D01*
X283840Y669056D01*
X283956Y669073D01*
X283962Y669075D01*
X283968Y669076D01*
X284071Y669131D01*
X284175Y669184D01*
X284180Y669189D01*
X284185Y669192D01*
X284265Y669276D01*
X284348Y669360D01*
X284351Y669366D01*
X284355Y669370D01*
X284363Y669387D01*
X284429Y669507D01*
X284648Y670038D01*
X287542Y672932D01*
X291324Y674498D01*
X295416Y674498D01*
X299198Y672932D01*
X302092Y670038D01*
X303658Y666256D01*
X303658Y662164D01*
X302092Y658382D01*
X299198Y655488D01*
X295416Y653922D01*
X291324Y653922D01*
X287542Y655488D01*
X284648Y658382D01*
X284429Y658913D01*
X284367Y659013D01*
X284307Y659113D01*
X284302Y659117D01*
X284299Y659122D01*
X284209Y659197D01*
X284120Y659273D01*
X284114Y659275D01*
X284109Y659279D01*
X284001Y659321D01*
X283892Y659365D01*
X283884Y659366D01*
X283880Y659367D01*
X283862Y659368D01*
X283725Y659383D01*
X269015Y659383D01*
X268925Y659369D01*
X268834Y659361D01*
X268804Y659349D01*
X268772Y659344D01*
X268691Y659301D01*
X268607Y659265D01*
X268575Y659239D01*
X268555Y659228D01*
X268532Y659205D01*
X268476Y659160D01*
X262160Y652844D01*
X262148Y652827D01*
X262132Y652815D01*
X262076Y652728D01*
X262016Y652644D01*
X262010Y652625D01*
X261999Y652608D01*
X261974Y652507D01*
X261944Y652409D01*
X261944Y652389D01*
X261939Y652369D01*
X261947Y652266D01*
X261950Y652163D01*
X261957Y652144D01*
X261958Y652124D01*
X261999Y652029D01*
X262034Y651932D01*
X262047Y651916D01*
X262055Y651898D01*
X262138Y651794D01*
X263276Y647546D01*
X262140Y643305D01*
X261669Y642834D01*
X261031Y642196D01*
X259807Y640972D01*
X257842Y639007D01*
X253602Y637871D01*
X251827Y638346D01*
X251732Y638356D01*
X251638Y638372D01*
X251610Y638368D01*
X251582Y638371D01*
X251489Y638350D01*
X251395Y638335D01*
X251370Y638322D01*
X251343Y638316D01*
X251261Y638266D01*
X251177Y638222D01*
X251157Y638202D01*
X251133Y638187D01*
X251072Y638114D01*
X251005Y638046D01*
X250993Y638021D01*
X250975Y637999D01*
X250940Y637910D01*
X250899Y637824D01*
X250896Y637796D01*
X250886Y637770D01*
X250881Y637675D01*
X250869Y637580D01*
X250875Y637545D01*
X250874Y637524D01*
X250883Y637492D01*
X250895Y637414D01*
X251370Y635639D01*
X250234Y631399D01*
X247068Y628233D01*
X247045Y628210D01*
X245936Y627101D01*
X241695Y625965D01*
X239921Y626440D01*
X239826Y626450D01*
X239732Y626466D01*
X239704Y626462D01*
X239676Y626465D01*
X239583Y626443D01*
X239489Y626429D01*
X239464Y626416D01*
X239436Y626410D01*
X239355Y626360D01*
X239270Y626316D01*
X239251Y626296D01*
X239227Y626281D01*
X239165Y626208D01*
X239099Y626140D01*
X239087Y626114D01*
X239069Y626093D01*
X239034Y626004D01*
X238993Y625918D01*
X238990Y625890D01*
X238979Y625864D01*
X238975Y625768D01*
X238963Y625674D01*
X238969Y625639D01*
X238968Y625618D01*
X238977Y625586D01*
X238989Y625508D01*
X239464Y623733D01*
X238328Y619493D01*
X236407Y617572D01*
X235139Y616304D01*
X234968Y616133D01*
X234968Y616132D01*
X234030Y615195D01*
X229789Y614058D01*
X225545Y615196D01*
X225539Y615203D01*
X225452Y615258D01*
X225368Y615319D01*
X225349Y615325D01*
X225332Y615336D01*
X225232Y615361D01*
X225133Y615391D01*
X225113Y615391D01*
X225094Y615396D01*
X224991Y615388D01*
X224887Y615385D01*
X224869Y615378D01*
X224848Y615376D01*
X224753Y615336D01*
X224656Y615301D01*
X224641Y615288D01*
X224622Y615280D01*
X224491Y615175D01*
X224426Y615110D01*
X223490Y614174D01*
X223437Y614100D01*
X223377Y614030D01*
X223365Y614000D01*
X223346Y613974D01*
X223319Y613887D01*
X223285Y613802D01*
X223281Y613761D01*
X223274Y613739D01*
X223275Y613707D01*
X223267Y613635D01*
X223267Y361847D01*
X223286Y361732D01*
X223303Y361616D01*
X223305Y361610D01*
X223306Y361604D01*
X223361Y361502D01*
X223414Y361397D01*
X223419Y361392D01*
X223422Y361387D01*
X223506Y361307D01*
X223590Y361225D01*
X223596Y361221D01*
X223600Y361218D01*
X223617Y361210D01*
X223737Y361144D01*
X224483Y360835D01*
X227485Y357833D01*
X229109Y353912D01*
X229109Y334428D01*
X229056Y334301D01*
X229046Y334257D01*
X229026Y334215D01*
X229018Y334138D01*
X229000Y334062D01*
X229004Y334016D01*
X228999Y333971D01*
X229016Y333894D01*
X229023Y333817D01*
X229042Y333775D01*
X229052Y333730D01*
X229092Y333663D01*
X229123Y333592D01*
X229154Y333559D01*
X229178Y333519D01*
X229237Y333468D01*
X229290Y333411D01*
X229330Y333389D01*
X229365Y333359D01*
X229437Y333330D01*
X229505Y333293D01*
X229550Y333284D01*
X229593Y333267D01*
X229729Y333252D01*
X229747Y333249D01*
X229752Y333250D01*
X229760Y333249D01*
X232520Y333249D01*
X232566Y333256D01*
X232612Y333254D01*
X232686Y333276D01*
X232763Y333289D01*
X232804Y333310D01*
X232848Y333323D01*
X232912Y333367D01*
X232981Y333404D01*
X233012Y333437D01*
X233050Y333463D01*
X233096Y333525D01*
X233150Y333582D01*
X233169Y333624D01*
X233197Y333660D01*
X233221Y333734D01*
X233254Y333805D01*
X233259Y333851D01*
X233273Y333894D01*
X233272Y333972D01*
X233281Y334049D01*
X233271Y334094D01*
X233270Y334140D01*
X233232Y334272D01*
X233228Y334290D01*
X233226Y334294D01*
X233224Y334301D01*
X233171Y334428D01*
X233171Y353912D01*
X234795Y357833D01*
X237797Y360835D01*
X238543Y361144D01*
X238643Y361205D01*
X238743Y361265D01*
X238747Y361270D01*
X238752Y361273D01*
X238827Y361363D01*
X238903Y361452D01*
X238905Y361458D01*
X238909Y361463D01*
X238951Y361571D01*
X238995Y361680D01*
X238996Y361688D01*
X238997Y361693D01*
X238998Y361711D01*
X239013Y361847D01*
X239013Y548099D01*
X258351Y567437D01*
X283725Y567437D01*
X283840Y567456D01*
X283956Y567473D01*
X283962Y567475D01*
X283968Y567476D01*
X284071Y567531D01*
X284175Y567584D01*
X284180Y567589D01*
X284185Y567592D01*
X284265Y567676D01*
X284348Y567760D01*
X284351Y567766D01*
X284355Y567770D01*
X284363Y567787D01*
X284429Y567907D01*
X284648Y568438D01*
X287542Y571332D01*
X291324Y572898D01*
X295416Y572898D01*
X299198Y571332D01*
X302092Y568438D01*
X303658Y564656D01*
X303658Y560564D01*
X302092Y556782D01*
X299198Y553888D01*
X295416Y552322D01*
X291324Y552322D01*
X287542Y553888D01*
X284648Y556782D01*
X284429Y557313D01*
X284367Y557413D01*
X284307Y557513D01*
X284302Y557517D01*
X284299Y557522D01*
X284209Y557597D01*
X284120Y557673D01*
X284114Y557675D01*
X284109Y557679D01*
X284001Y557721D01*
X283892Y557765D01*
X283884Y557766D01*
X283880Y557767D01*
X283862Y557768D01*
X283725Y557783D01*
X262665Y557783D01*
X262575Y557769D01*
X262484Y557761D01*
X262454Y557749D01*
X262422Y557744D01*
X262341Y557701D01*
X262257Y557665D01*
X262225Y557639D01*
X262205Y557628D01*
X262182Y557605D01*
X262126Y557560D01*
X248890Y544324D01*
X248837Y544250D01*
X248777Y544180D01*
X248765Y544150D01*
X248746Y544124D01*
X248719Y544037D01*
X248685Y543952D01*
X248681Y543911D01*
X248674Y543889D01*
X248675Y543857D01*
X248667Y543785D01*
X248667Y361847D01*
X248686Y361732D01*
X248703Y361616D01*
X248705Y361610D01*
X248706Y361604D01*
X248761Y361502D01*
X248814Y361397D01*
X248819Y361392D01*
X248822Y361387D01*
X248906Y361307D01*
X248990Y361225D01*
X248996Y361221D01*
X249000Y361218D01*
X249017Y361210D01*
X249137Y361144D01*
X249883Y360835D01*
X252885Y357833D01*
X254509Y353912D01*
X254509Y334428D01*
X254456Y334301D01*
X254446Y334257D01*
X254426Y334215D01*
X254418Y334138D01*
X254400Y334062D01*
X254404Y334016D01*
X254399Y333971D01*
X254416Y333894D01*
X254423Y333817D01*
X254442Y333775D01*
X254452Y333730D01*
X254492Y333663D01*
X254523Y333592D01*
X254554Y333559D01*
X254578Y333519D01*
X254637Y333468D01*
X254690Y333411D01*
X254730Y333389D01*
X254765Y333359D01*
X254837Y333330D01*
X254905Y333293D01*
X254950Y333284D01*
X254993Y333267D01*
X255129Y333252D01*
X255147Y333249D01*
X255152Y333250D01*
X255160Y333249D01*
X257920Y333249D01*
X257966Y333256D01*
X258012Y333254D01*
X258086Y333276D01*
X258163Y333289D01*
X258204Y333310D01*
X258248Y333323D01*
X258312Y333367D01*
X258381Y333404D01*
X258412Y333437D01*
X258450Y333463D01*
X258496Y333525D01*
X258550Y333582D01*
X258569Y333624D01*
X258597Y333660D01*
X258621Y333734D01*
X258654Y333805D01*
X258659Y333851D01*
X258673Y333894D01*
X258672Y333972D01*
X258681Y334049D01*
X258671Y334094D01*
X258670Y334140D01*
X258632Y334272D01*
X258628Y334290D01*
X258626Y334294D01*
X258624Y334301D01*
X258571Y334428D01*
X258571Y353912D01*
X260195Y357833D01*
X263197Y360835D01*
X267118Y362459D01*
X271362Y362459D01*
X275283Y360835D01*
X278285Y357833D01*
X279909Y353912D01*
X279909Y334428D01*
X279856Y334301D01*
X279846Y334257D01*
X279826Y334215D01*
X279818Y334138D01*
X279800Y334062D01*
X279804Y334016D01*
X279799Y333971D01*
X279816Y333894D01*
X279823Y333817D01*
X279842Y333775D01*
X279852Y333730D01*
X279892Y333663D01*
X279923Y333592D01*
X279954Y333559D01*
X279978Y333519D01*
X280037Y333468D01*
X280090Y333411D01*
X280130Y333389D01*
X280165Y333359D01*
X280237Y333330D01*
X280305Y333293D01*
X280350Y333284D01*
X280393Y333267D01*
X280529Y333252D01*
X280547Y333249D01*
X280552Y333250D01*
X280560Y333249D01*
X283320Y333249D01*
X283366Y333256D01*
X283412Y333254D01*
X283486Y333276D01*
X283563Y333289D01*
X283604Y333310D01*
X283648Y333323D01*
X283712Y333367D01*
X283781Y333404D01*
X283812Y333437D01*
X283850Y333463D01*
X283896Y333525D01*
X283950Y333582D01*
X283969Y333624D01*
X283997Y333660D01*
X284021Y333734D01*
X284054Y333805D01*
X284059Y333851D01*
X284073Y333894D01*
X284072Y333972D01*
X284081Y334049D01*
X284071Y334094D01*
X284070Y334140D01*
X284032Y334272D01*
X284028Y334290D01*
X284026Y334294D01*
X284024Y334301D01*
X283971Y334428D01*
X283971Y353912D01*
X285595Y357833D01*
X288597Y360835D01*
X292518Y362459D01*
X294357Y362459D01*
X294447Y362473D01*
X294538Y362481D01*
X294568Y362493D01*
X294600Y362498D01*
X294681Y362541D01*
X294765Y362577D01*
X294797Y362603D01*
X294817Y362614D01*
X294840Y362637D01*
X294896Y362682D01*
X316260Y384046D01*
X316313Y384120D01*
X316373Y384190D01*
X316385Y384220D01*
X316404Y384246D01*
X316431Y384333D01*
X316465Y384418D01*
X316469Y384459D01*
X316476Y384481D01*
X316475Y384513D01*
X316483Y384585D01*
X316483Y746985D01*
X316469Y747075D01*
X316461Y747166D01*
X316449Y747196D01*
X316444Y747228D01*
X316401Y747309D01*
X316365Y747393D01*
X316339Y747425D01*
X316328Y747445D01*
X316305Y747468D01*
X316260Y747524D01*
X315724Y748060D01*
X315650Y748113D01*
X315580Y748173D01*
X315550Y748185D01*
X315524Y748204D01*
X315437Y748231D01*
X315352Y748265D01*
X315311Y748269D01*
X315289Y748276D01*
X315257Y748275D01*
X315185Y748283D01*
X301884Y748283D01*
X301813Y748272D01*
X301741Y748270D01*
X301692Y748252D01*
X301641Y748244D01*
X301578Y748210D01*
X301510Y748185D01*
X301470Y748153D01*
X301423Y748128D01*
X301374Y748076D01*
X301318Y748032D01*
X301290Y747988D01*
X301254Y747950D01*
X301224Y747885D01*
X301185Y747825D01*
X301172Y747774D01*
X301150Y747727D01*
X301143Y747656D01*
X301125Y747586D01*
X301129Y747534D01*
X301123Y747483D01*
X301139Y747412D01*
X301144Y747341D01*
X301165Y747293D01*
X301176Y747242D01*
X301212Y747181D01*
X301241Y747115D01*
X301285Y747059D01*
X301302Y747031D01*
X301320Y747016D01*
X301345Y746984D01*
X302092Y746238D01*
X303658Y742456D01*
X303658Y738364D01*
X302092Y734582D01*
X299198Y731688D01*
X295416Y730122D01*
X291324Y730122D01*
X287542Y731688D01*
X284648Y734582D01*
X283082Y738364D01*
X283082Y742456D01*
X284648Y746238D01*
X285395Y746984D01*
X285437Y747042D01*
X285486Y747094D01*
X285508Y747141D01*
X285538Y747183D01*
X285559Y747252D01*
X285590Y747317D01*
X285595Y747369D01*
X285611Y747419D01*
X285609Y747490D01*
X285617Y747561D01*
X285606Y747612D01*
X285604Y747664D01*
X285580Y747732D01*
X285564Y747802D01*
X285538Y747847D01*
X285520Y747895D01*
X285475Y747951D01*
X285438Y748013D01*
X285399Y748047D01*
X285366Y748087D01*
X285306Y748126D01*
X285251Y748173D01*
X285203Y748192D01*
X285159Y748220D01*
X285090Y748238D01*
X285023Y748265D01*
X284952Y748273D01*
X284921Y748281D01*
X284897Y748279D01*
X284856Y748283D01*
X151671Y748283D01*
X148620Y751334D01*
X144377Y755577D01*
X144282Y755646D01*
X144188Y755715D01*
X144182Y755717D01*
X144177Y755721D01*
X144065Y755755D01*
X143954Y755791D01*
X143948Y755791D01*
X143942Y755793D01*
X143825Y755790D01*
X143708Y755789D01*
X143701Y755787D01*
X143696Y755787D01*
X143679Y755780D01*
X143547Y755742D01*
X143016Y755522D01*
X138924Y755522D01*
X135142Y757088D01*
X132248Y759982D01*
X130682Y763764D01*
X130682Y767856D01*
X132248Y771638D01*
X135142Y774532D01*
X138924Y776098D01*
X143016Y776098D01*
X146798Y774532D01*
X149692Y771638D01*
X151258Y767856D01*
X151258Y763764D01*
X151038Y763233D01*
X151011Y763119D01*
X150983Y763006D01*
X150983Y762999D01*
X150982Y762993D01*
X150993Y762877D01*
X151002Y762760D01*
X151004Y762755D01*
X151005Y762748D01*
X151053Y762641D01*
X151098Y762534D01*
X151103Y762528D01*
X151105Y762524D01*
X151117Y762510D01*
X151203Y762403D01*
X155446Y758160D01*
X155520Y758107D01*
X155590Y758047D01*
X155620Y758035D01*
X155646Y758016D01*
X155733Y757989D01*
X155818Y757955D01*
X155859Y757951D01*
X155881Y757944D01*
X155913Y757945D01*
X155985Y757937D01*
X284856Y757937D01*
X284927Y757948D01*
X284999Y757950D01*
X285048Y757968D01*
X285099Y757976D01*
X285162Y758010D01*
X285230Y758035D01*
X285270Y758067D01*
X285317Y758092D01*
X285366Y758144D01*
X285422Y758188D01*
X285450Y758232D01*
X285486Y758270D01*
X285516Y758335D01*
X285555Y758395D01*
X285568Y758446D01*
X285590Y758493D01*
X285597Y758564D01*
X285615Y758634D01*
X285611Y758686D01*
X285617Y758737D01*
X285601Y758808D01*
X285596Y758879D01*
X285575Y758927D01*
X285564Y758978D01*
X285528Y759039D01*
X285499Y759105D01*
X285455Y759161D01*
X285438Y759189D01*
X285420Y759204D01*
X285395Y759236D01*
X284648Y759982D01*
X283082Y763764D01*
X283082Y767856D01*
X284648Y771638D01*
X287542Y774532D01*
X291324Y776098D01*
X295416Y776098D01*
X299198Y774532D01*
X302092Y771638D01*
X303658Y767856D01*
X303658Y763764D01*
X302092Y759982D01*
X301345Y759236D01*
X301303Y759178D01*
X301254Y759126D01*
X301232Y759079D01*
X301202Y759037D01*
X301181Y758968D01*
X301150Y758903D01*
X301145Y758851D01*
X301129Y758801D01*
X301131Y758730D01*
X301123Y758659D01*
X301134Y758608D01*
X301136Y758556D01*
X301160Y758488D01*
X301176Y758418D01*
X301202Y758373D01*
X301220Y758325D01*
X301265Y758269D01*
X301302Y758207D01*
X301341Y758173D01*
X301374Y758133D01*
X301434Y758094D01*
X301489Y758047D01*
X301537Y758028D01*
X301581Y758000D01*
X301650Y757982D01*
X301717Y757955D01*
X301788Y757947D01*
X301819Y757939D01*
X301843Y757941D01*
X301884Y757937D01*
X319499Y757937D01*
X326137Y751299D01*
X326137Y380271D01*
X304049Y358183D01*
X303981Y358089D01*
X303911Y357994D01*
X303909Y357988D01*
X303905Y357983D01*
X303871Y357872D01*
X303834Y357760D01*
X303834Y357754D01*
X303833Y357748D01*
X303836Y357631D01*
X303837Y357514D01*
X303839Y357507D01*
X303839Y357502D01*
X303845Y357484D01*
X303884Y357353D01*
X305309Y353912D01*
X305309Y339851D01*
X305054Y339851D01*
X305034Y339848D01*
X305015Y339850D01*
X304913Y339828D01*
X304811Y339812D01*
X304794Y339802D01*
X304774Y339798D01*
X304685Y339745D01*
X304594Y339696D01*
X304580Y339682D01*
X304563Y339672D01*
X304496Y339593D01*
X304424Y339518D01*
X304416Y339500D01*
X304403Y339485D01*
X304364Y339389D01*
X304321Y339295D01*
X304319Y339275D01*
X304311Y339257D01*
X304293Y339090D01*
X304293Y334630D01*
X302823Y331082D01*
X301722Y329981D01*
X301669Y329907D01*
X301609Y329837D01*
X301597Y329807D01*
X301578Y329781D01*
X301551Y329694D01*
X301517Y329609D01*
X301513Y329568D01*
X301506Y329546D01*
X301507Y329514D01*
X301499Y329442D01*
X301499Y322071D01*
X300228Y322071D01*
X300208Y322068D01*
X300189Y322070D01*
X300087Y322048D01*
X299985Y322032D01*
X299968Y322022D01*
X299948Y322018D01*
X299859Y321965D01*
X299768Y321916D01*
X299754Y321902D01*
X299737Y321892D01*
X299670Y321813D01*
X299598Y321738D01*
X299590Y321720D01*
X299577Y321705D01*
X299538Y321609D01*
X299495Y321515D01*
X299493Y321495D01*
X299485Y321477D01*
X299467Y321310D01*
X299467Y227871D01*
X296639Y225043D01*
X296236Y225043D01*
X296146Y225029D01*
X296055Y225021D01*
X296025Y225009D01*
X295993Y225004D01*
X295913Y224961D01*
X295829Y224925D01*
X295797Y224899D01*
X295776Y224888D01*
X295754Y224865D01*
X295698Y224820D01*
X225268Y154390D01*
X225215Y154316D01*
X225155Y154247D01*
X225143Y154217D01*
X225124Y154190D01*
X225097Y154103D01*
X225063Y154019D01*
X225059Y153978D01*
X225052Y153955D01*
X225053Y153923D01*
X225049Y153889D01*
X224233Y151918D01*
X222732Y150417D01*
X220771Y149605D01*
X218649Y149605D01*
X216688Y150417D01*
X215187Y151918D01*
X214375Y153879D01*
X214375Y156001D01*
X215187Y157962D01*
X216688Y159463D01*
X218667Y160282D01*
X218712Y160289D01*
X218803Y160297D01*
X218833Y160309D01*
X218865Y160314D01*
X218945Y160357D01*
X219029Y160393D01*
X219061Y160419D01*
X219082Y160430D01*
X219104Y160453D01*
X219160Y160498D01*
X219331Y160668D01*
X219342Y160684D01*
X219358Y160697D01*
X219414Y160784D01*
X219474Y160868D01*
X219480Y160887D01*
X219491Y160904D01*
X219516Y161004D01*
X219547Y161103D01*
X219546Y161123D01*
X219551Y161142D01*
X219543Y161245D01*
X219540Y161349D01*
X219533Y161368D01*
X219532Y161388D01*
X219491Y161483D01*
X219456Y161580D01*
X219443Y161596D01*
X219436Y161614D01*
X219331Y161745D01*
X218600Y162476D01*
X217788Y164436D01*
X217788Y166559D01*
X218600Y168519D01*
X220101Y170020D01*
X222079Y170840D01*
X222124Y170847D01*
X222215Y170854D01*
X222245Y170867D01*
X222277Y170872D01*
X222358Y170915D01*
X222442Y170950D01*
X222474Y170976D01*
X222494Y170987D01*
X222517Y171010D01*
X222573Y171055D01*
X253587Y202070D01*
X253614Y202107D01*
X253648Y202138D01*
X253686Y202207D01*
X253731Y202270D01*
X253744Y202313D01*
X253767Y202354D01*
X253780Y202430D01*
X253803Y202505D01*
X253802Y202551D01*
X253810Y202596D01*
X253799Y202673D01*
X253797Y202751D01*
X253781Y202794D01*
X253774Y202839D01*
X253739Y202909D01*
X253712Y202982D01*
X253684Y203018D01*
X253663Y203058D01*
X253607Y203113D01*
X253559Y203174D01*
X253520Y203199D01*
X253487Y203231D01*
X253368Y203296D01*
X253352Y203307D01*
X253347Y203308D01*
X253340Y203312D01*
X253246Y203351D01*
X251611Y204986D01*
X250725Y207123D01*
X250725Y209437D01*
X251611Y211574D01*
X253246Y213209D01*
X255383Y214095D01*
X257697Y214095D01*
X259834Y213209D01*
X261469Y211574D01*
X261508Y211480D01*
X261533Y211441D01*
X261548Y211397D01*
X261597Y211337D01*
X261638Y211271D01*
X261673Y211241D01*
X261702Y211205D01*
X261768Y211163D01*
X261828Y211114D01*
X261870Y211097D01*
X261909Y211072D01*
X261985Y211053D01*
X262057Y211026D01*
X262103Y211024D01*
X262148Y211012D01*
X262225Y211018D01*
X262303Y211015D01*
X262347Y211028D01*
X262393Y211032D01*
X262464Y211062D01*
X262539Y211084D01*
X262577Y211110D01*
X262619Y211128D01*
X262726Y211213D01*
X262741Y211224D01*
X262744Y211228D01*
X262750Y211233D01*
X263395Y211878D01*
X263449Y211952D01*
X263508Y212021D01*
X263520Y212051D01*
X263539Y212078D01*
X263566Y212165D01*
X263600Y212249D01*
X263604Y212290D01*
X263611Y212313D01*
X263610Y212345D01*
X263618Y212416D01*
X263618Y212819D01*
X264190Y213391D01*
X264243Y213465D01*
X264303Y213535D01*
X264315Y213565D01*
X264334Y213591D01*
X264361Y213678D01*
X264395Y213763D01*
X264399Y213804D01*
X264406Y213826D01*
X264405Y213858D01*
X264413Y213930D01*
X264413Y280130D01*
X264398Y280226D01*
X264388Y280323D01*
X264378Y280347D01*
X264374Y280373D01*
X264328Y280459D01*
X264288Y280548D01*
X264271Y280567D01*
X264258Y280590D01*
X264188Y280657D01*
X264122Y280729D01*
X264099Y280741D01*
X264080Y280760D01*
X263992Y280801D01*
X263906Y280847D01*
X263881Y280852D01*
X263857Y280863D01*
X263760Y280874D01*
X263664Y280891D01*
X263638Y280887D01*
X263613Y280890D01*
X263518Y280870D01*
X263421Y280855D01*
X263398Y280844D01*
X263372Y280838D01*
X263289Y280788D01*
X263202Y280744D01*
X263183Y280725D01*
X263161Y280712D01*
X263098Y280638D01*
X263030Y280568D01*
X263014Y280540D01*
X263001Y280525D01*
X262989Y280494D01*
X262949Y280421D01*
X262739Y279916D01*
X261104Y278281D01*
X258967Y277395D01*
X256653Y277395D01*
X254516Y278281D01*
X252881Y279916D01*
X251995Y282053D01*
X251995Y284367D01*
X252881Y286504D01*
X254516Y288139D01*
X256653Y289025D01*
X258967Y289025D01*
X261104Y288139D01*
X262739Y286504D01*
X262949Y285999D01*
X263000Y285916D01*
X263046Y285830D01*
X263065Y285812D01*
X263078Y285790D01*
X263153Y285728D01*
X263224Y285660D01*
X263248Y285649D01*
X263268Y285633D01*
X263359Y285598D01*
X263447Y285557D01*
X263473Y285554D01*
X263497Y285545D01*
X263595Y285540D01*
X263691Y285530D01*
X263717Y285535D01*
X263743Y285534D01*
X263837Y285561D01*
X263932Y285582D01*
X263954Y285595D01*
X263979Y285603D01*
X264059Y285658D01*
X264143Y285708D01*
X264160Y285728D01*
X264181Y285743D01*
X264239Y285821D01*
X264303Y285895D01*
X264313Y285919D01*
X264328Y285940D01*
X264358Y286033D01*
X264395Y286123D01*
X264398Y286156D01*
X264404Y286174D01*
X264404Y286207D01*
X264413Y286290D01*
X264413Y321310D01*
X264410Y321330D01*
X264412Y321349D01*
X264390Y321451D01*
X264374Y321553D01*
X264364Y321570D01*
X264360Y321590D01*
X264307Y321679D01*
X264258Y321770D01*
X264244Y321784D01*
X264234Y321801D01*
X264155Y321868D01*
X264080Y321940D01*
X264062Y321948D01*
X264047Y321961D01*
X263951Y322000D01*
X263857Y322043D01*
X263837Y322045D01*
X263819Y322053D01*
X263652Y322071D01*
X249428Y322071D01*
X249408Y322068D01*
X249389Y322070D01*
X249287Y322048D01*
X249185Y322032D01*
X249168Y322022D01*
X249148Y322018D01*
X249059Y321965D01*
X248968Y321916D01*
X248954Y321902D01*
X248937Y321892D01*
X248870Y321813D01*
X248798Y321738D01*
X248790Y321720D01*
X248777Y321705D01*
X248738Y321609D01*
X248695Y321515D01*
X248693Y321495D01*
X248685Y321477D01*
X248667Y321310D01*
X248667Y278013D01*
X248677Y277949D01*
X248678Y277883D01*
X248701Y277803D01*
X248706Y277771D01*
X248716Y277753D01*
X248725Y277722D01*
X249655Y275477D01*
X249655Y273163D01*
X248725Y270918D01*
X248710Y270854D01*
X248685Y270793D01*
X248676Y270711D01*
X248669Y270679D01*
X248670Y270659D01*
X248667Y270627D01*
X248667Y241841D01*
X237460Y230634D01*
X237407Y230560D01*
X237347Y230490D01*
X237335Y230460D01*
X237316Y230434D01*
X237289Y230347D01*
X237255Y230262D01*
X237251Y230221D01*
X237244Y230199D01*
X237245Y230167D01*
X237237Y230095D01*
X237237Y192311D01*
X234186Y189260D01*
X229928Y185002D01*
X229889Y184948D01*
X229843Y184902D01*
X229803Y184829D01*
X229784Y184802D01*
X229778Y184783D01*
X229763Y184755D01*
X229313Y183668D01*
X227812Y182167D01*
X225851Y181355D01*
X223729Y181355D01*
X221768Y182167D01*
X220267Y183668D01*
X219455Y185629D01*
X219455Y187751D01*
X220267Y189712D01*
X221768Y191213D01*
X222855Y191663D01*
X222910Y191697D01*
X222971Y191723D01*
X223035Y191775D01*
X223064Y191792D01*
X223076Y191807D01*
X223102Y191828D01*
X227360Y196086D01*
X227413Y196160D01*
X227473Y196230D01*
X227485Y196260D01*
X227504Y196286D01*
X227531Y196373D01*
X227565Y196458D01*
X227569Y196499D01*
X227576Y196521D01*
X227575Y196553D01*
X227583Y196625D01*
X227583Y234409D01*
X238790Y245616D01*
X238843Y245690D01*
X238903Y245760D01*
X238915Y245790D01*
X238934Y245816D01*
X238961Y245903D01*
X238995Y245988D01*
X238999Y246029D01*
X239006Y246051D01*
X239005Y246083D01*
X239013Y246155D01*
X239013Y270627D01*
X239003Y270691D01*
X239002Y270757D01*
X238979Y270837D01*
X238974Y270869D01*
X238964Y270887D01*
X238955Y270918D01*
X238025Y273163D01*
X238025Y275477D01*
X238955Y277722D01*
X238970Y277786D01*
X238995Y277847D01*
X239004Y277929D01*
X239011Y277961D01*
X239010Y277981D01*
X239013Y278013D01*
X239013Y321310D01*
X239010Y321330D01*
X239012Y321349D01*
X238990Y321451D01*
X238974Y321553D01*
X238964Y321570D01*
X238960Y321590D01*
X238907Y321679D01*
X238858Y321770D01*
X238844Y321784D01*
X238834Y321801D01*
X238755Y321868D01*
X238680Y321940D01*
X238662Y321948D01*
X238647Y321961D01*
X238551Y322000D01*
X238457Y322043D01*
X238437Y322045D01*
X238419Y322053D01*
X238252Y322071D01*
X224028Y322071D01*
X224008Y322068D01*
X223989Y322070D01*
X223887Y322048D01*
X223785Y322032D01*
X223768Y322022D01*
X223748Y322018D01*
X223659Y321965D01*
X223568Y321916D01*
X223554Y321902D01*
X223537Y321892D01*
X223470Y321813D01*
X223398Y321738D01*
X223390Y321720D01*
X223377Y321705D01*
X223338Y321609D01*
X223295Y321515D01*
X223293Y321495D01*
X223285Y321477D01*
X223267Y321310D01*
X223267Y312765D01*
X221072Y308963D01*
X217270Y306768D01*
X217191Y306768D01*
X217172Y306765D01*
X217152Y306767D01*
X217051Y306745D01*
X216949Y306728D01*
X216931Y306719D01*
X216912Y306714D01*
X216823Y306661D01*
X216731Y306613D01*
X216718Y306599D01*
X216700Y306588D01*
X216633Y306510D01*
X216562Y306435D01*
X216553Y306417D01*
X216541Y306401D01*
X216502Y306305D01*
X216458Y306212D01*
X216456Y306192D01*
X216449Y306173D01*
X216430Y306007D01*
X216430Y298941D01*
X216433Y298921D01*
X216431Y298902D01*
X216453Y298800D01*
X216470Y298698D01*
X216479Y298681D01*
X216483Y298661D01*
X216537Y298572D01*
X216585Y298481D01*
X216599Y298467D01*
X216610Y298450D01*
X216688Y298383D01*
X216763Y298311D01*
X216781Y298303D01*
X216796Y298290D01*
X216893Y298251D01*
X216986Y298208D01*
X217006Y298206D01*
X217025Y298198D01*
X217191Y298180D01*
X217270Y298180D01*
X221072Y295985D01*
X223267Y292183D01*
X223267Y225959D01*
X223277Y225894D01*
X223278Y225829D01*
X223301Y225749D01*
X223306Y225716D01*
X223316Y225699D01*
X223325Y225668D01*
X223775Y224581D01*
X223775Y222459D01*
X222963Y220498D01*
X221462Y218997D01*
X219501Y218185D01*
X217379Y218185D01*
X215418Y218997D01*
X213917Y220498D01*
X213691Y221044D01*
X213653Y221105D01*
X213624Y221170D01*
X213589Y221209D01*
X213562Y221253D01*
X213506Y221299D01*
X213458Y221352D01*
X213412Y221377D01*
X213372Y221410D01*
X213305Y221436D01*
X213242Y221470D01*
X213191Y221479D01*
X213143Y221498D01*
X213071Y221501D01*
X213000Y221514D01*
X212949Y221506D01*
X212897Y221508D01*
X212828Y221489D01*
X212757Y221478D01*
X212711Y221454D01*
X212661Y221440D01*
X212602Y221399D01*
X212538Y221367D01*
X212501Y221329D01*
X212459Y221300D01*
X212416Y221242D01*
X212366Y221191D01*
X212331Y221128D01*
X212312Y221102D01*
X212305Y221080D01*
X212285Y221044D01*
X211533Y219228D01*
X210032Y217727D01*
X208071Y216915D01*
X205949Y216915D01*
X203988Y217727D01*
X202487Y219228D01*
X201853Y220760D01*
X201829Y220799D01*
X201813Y220842D01*
X201764Y220903D01*
X201723Y220969D01*
X201688Y220998D01*
X201659Y221034D01*
X201594Y221076D01*
X201534Y221126D01*
X201491Y221142D01*
X201452Y221167D01*
X201377Y221186D01*
X201304Y221214D01*
X201258Y221216D01*
X201214Y221227D01*
X201136Y221221D01*
X201058Y221224D01*
X201014Y221212D01*
X200969Y221208D01*
X200897Y221178D01*
X200822Y221156D01*
X200785Y221130D01*
X200742Y221112D01*
X200636Y221026D01*
X200620Y221016D01*
X200617Y221012D01*
X200611Y221007D01*
X199872Y220267D01*
X197911Y219455D01*
X195789Y219455D01*
X193828Y220267D01*
X192327Y221768D01*
X191515Y223729D01*
X191515Y225851D01*
X192327Y227812D01*
X192534Y228019D01*
X192587Y228093D01*
X192647Y228162D01*
X192659Y228192D01*
X192678Y228219D01*
X192705Y228305D01*
X192739Y228390D01*
X192743Y228431D01*
X192750Y228454D01*
X192749Y228486D01*
X192757Y228557D01*
X192757Y230124D01*
X192754Y230144D01*
X192756Y230163D01*
X192734Y230265D01*
X192718Y230367D01*
X192708Y230384D01*
X192704Y230404D01*
X192651Y230493D01*
X192602Y230584D01*
X192588Y230598D01*
X192578Y230615D01*
X192499Y230682D01*
X192424Y230754D01*
X192406Y230762D01*
X192391Y230775D01*
X192295Y230814D01*
X192201Y230857D01*
X192181Y230859D01*
X192163Y230867D01*
X191996Y230885D01*
X190709Y230885D01*
X188748Y231697D01*
X187247Y233198D01*
X186797Y234285D01*
X186763Y234340D01*
X186737Y234401D01*
X186685Y234465D01*
X186668Y234494D01*
X186653Y234506D01*
X186632Y234532D01*
X171086Y250078D01*
X171070Y250090D01*
X171057Y250105D01*
X170970Y250162D01*
X170886Y250222D01*
X170867Y250228D01*
X170850Y250238D01*
X170750Y250264D01*
X170651Y250294D01*
X170631Y250294D01*
X170612Y250299D01*
X170509Y250291D01*
X170405Y250288D01*
X170386Y250281D01*
X170366Y250279D01*
X170272Y250239D01*
X170174Y250203D01*
X170158Y250191D01*
X170140Y250183D01*
X170009Y250078D01*
X168281Y248351D01*
X166052Y247427D01*
X163640Y247427D01*
X161411Y248351D01*
X159705Y250057D01*
X158781Y252286D01*
X158781Y254698D01*
X159705Y256927D01*
X161432Y258655D01*
X161444Y258671D01*
X161459Y258684D01*
X161516Y258771D01*
X161576Y258855D01*
X161582Y258874D01*
X161592Y258891D01*
X161618Y258991D01*
X161648Y259090D01*
X161648Y259110D01*
X161653Y259129D01*
X161645Y259232D01*
X161642Y259336D01*
X161635Y259355D01*
X161633Y259374D01*
X161593Y259469D01*
X161557Y259567D01*
X161545Y259582D01*
X161537Y259601D01*
X161432Y259732D01*
X140464Y280700D01*
X137413Y283751D01*
X137413Y321310D01*
X137410Y321330D01*
X137412Y321349D01*
X137390Y321451D01*
X137374Y321553D01*
X137364Y321570D01*
X137360Y321590D01*
X137307Y321679D01*
X137258Y321770D01*
X137244Y321784D01*
X137234Y321801D01*
X137155Y321868D01*
X137080Y321940D01*
X137062Y321948D01*
X137047Y321961D01*
X136951Y322000D01*
X136857Y322043D01*
X136837Y322045D01*
X136819Y322053D01*
X136652Y322071D01*
X4572Y322071D01*
X4552Y322068D01*
X4533Y322070D01*
X4431Y322048D01*
X4329Y322032D01*
X4312Y322022D01*
X4292Y322018D01*
X4203Y321965D01*
X4112Y321916D01*
X4098Y321902D01*
X4081Y321892D01*
X4014Y321813D01*
X3942Y321738D01*
X3934Y321720D01*
X3921Y321705D01*
X3882Y321609D01*
X3839Y321515D01*
X3837Y321495D01*
X3829Y321477D01*
X3811Y321310D01*
X3811Y-20828D01*
X3814Y-20848D01*
X3812Y-20867D01*
X3834Y-20969D01*
X3850Y-21071D01*
X3860Y-21088D01*
X3864Y-21108D01*
X3917Y-21197D01*
X3966Y-21288D01*
X3980Y-21302D01*
X3990Y-21319D01*
X4069Y-21386D01*
X4144Y-21458D01*
X4162Y-21466D01*
X4177Y-21479D01*
X4273Y-21518D01*
X4367Y-21561D01*
X4387Y-21563D01*
X4405Y-21571D01*
X4572Y-21589D01*
X503428Y-21589D01*
X503448Y-21586D01*
G37*
G36*
X274938Y216497D02*
X274938Y216497D01*
X275009Y216503D01*
X275057Y216523D01*
X275108Y216534D01*
X275169Y216571D01*
X275235Y216599D01*
X275291Y216644D01*
X275319Y216660D01*
X275334Y216678D01*
X275366Y216704D01*
X289590Y230928D01*
X289643Y231002D01*
X289703Y231071D01*
X289715Y231101D01*
X289734Y231128D01*
X289761Y231215D01*
X289795Y231299D01*
X289799Y231340D01*
X289806Y231363D01*
X289805Y231395D01*
X289813Y231466D01*
X289813Y321310D01*
X289810Y321330D01*
X289812Y321349D01*
X289790Y321451D01*
X289774Y321553D01*
X289764Y321570D01*
X289760Y321590D01*
X289707Y321679D01*
X289658Y321770D01*
X289644Y321784D01*
X289634Y321801D01*
X289555Y321868D01*
X289480Y321940D01*
X289462Y321948D01*
X289447Y321961D01*
X289351Y322000D01*
X289257Y322043D01*
X289237Y322045D01*
X289219Y322053D01*
X289052Y322071D01*
X274828Y322071D01*
X274808Y322068D01*
X274789Y322070D01*
X274687Y322048D01*
X274585Y322032D01*
X274568Y322022D01*
X274548Y322018D01*
X274459Y321965D01*
X274368Y321916D01*
X274354Y321902D01*
X274337Y321892D01*
X274270Y321813D01*
X274198Y321738D01*
X274190Y321720D01*
X274177Y321705D01*
X274138Y321609D01*
X274095Y321515D01*
X274093Y321495D01*
X274085Y321477D01*
X274067Y321310D01*
X274067Y217242D01*
X274078Y217171D01*
X274080Y217100D01*
X274098Y217051D01*
X274106Y216999D01*
X274140Y216936D01*
X274165Y216869D01*
X274197Y216828D01*
X274222Y216782D01*
X274274Y216733D01*
X274318Y216677D01*
X274362Y216648D01*
X274400Y216613D01*
X274465Y216582D01*
X274525Y216544D01*
X274576Y216531D01*
X274623Y216509D01*
X274694Y216501D01*
X274764Y216484D01*
X274816Y216488D01*
X274867Y216482D01*
X274938Y216497D01*
G37*
G36*
X212612Y224588D02*
X212612Y224588D01*
X212637Y224585D01*
X212732Y224606D01*
X212829Y224620D01*
X212852Y224632D01*
X212878Y224638D01*
X212961Y224688D01*
X213048Y224732D01*
X213067Y224750D01*
X213089Y224764D01*
X213152Y224838D01*
X213220Y224907D01*
X213236Y224936D01*
X213249Y224951D01*
X213261Y224982D01*
X213301Y225054D01*
X213555Y225668D01*
X213570Y225731D01*
X213595Y225792D01*
X213604Y225875D01*
X213611Y225907D01*
X213610Y225926D01*
X213613Y225959D01*
X213613Y287765D01*
X213610Y287785D01*
X213612Y287804D01*
X213590Y287906D01*
X213574Y288008D01*
X213564Y288025D01*
X213560Y288045D01*
X213507Y288134D01*
X213458Y288225D01*
X213444Y288239D01*
X213434Y288256D01*
X213355Y288323D01*
X213280Y288395D01*
X213262Y288403D01*
X213247Y288416D01*
X213151Y288455D01*
X213057Y288498D01*
X213037Y288500D01*
X213019Y288508D01*
X212852Y288526D01*
X212774Y288526D01*
X208972Y290721D01*
X206777Y294523D01*
X206777Y310424D01*
X208972Y314226D01*
X212774Y316421D01*
X212852Y316421D01*
X212872Y316424D01*
X212891Y316422D01*
X212993Y316444D01*
X213095Y316461D01*
X213112Y316470D01*
X213132Y316475D01*
X213221Y316528D01*
X213312Y316576D01*
X213326Y316590D01*
X213343Y316601D01*
X213410Y316679D01*
X213482Y316754D01*
X213490Y316772D01*
X213503Y316788D01*
X213542Y316884D01*
X213585Y316977D01*
X213587Y316997D01*
X213595Y317016D01*
X213613Y317182D01*
X213613Y321310D01*
X213610Y321330D01*
X213612Y321349D01*
X213590Y321451D01*
X213574Y321553D01*
X213564Y321570D01*
X213560Y321590D01*
X213507Y321679D01*
X213458Y321770D01*
X213444Y321784D01*
X213434Y321801D01*
X213355Y321868D01*
X213280Y321940D01*
X213262Y321948D01*
X213247Y321961D01*
X213151Y322000D01*
X213057Y322043D01*
X213037Y322045D01*
X213019Y322053D01*
X212852Y322071D01*
X198628Y322071D01*
X198608Y322068D01*
X198589Y322070D01*
X198487Y322048D01*
X198385Y322032D01*
X198368Y322022D01*
X198348Y322018D01*
X198259Y321965D01*
X198168Y321916D01*
X198154Y321902D01*
X198137Y321892D01*
X198070Y321813D01*
X197998Y321738D01*
X197990Y321720D01*
X197977Y321705D01*
X197938Y321609D01*
X197895Y321515D01*
X197893Y321495D01*
X197885Y321477D01*
X197867Y321310D01*
X197867Y316575D01*
X195672Y312773D01*
X191866Y310576D01*
X191858Y310577D01*
X191756Y310555D01*
X191654Y310538D01*
X191637Y310529D01*
X191617Y310524D01*
X191528Y310471D01*
X191437Y310423D01*
X191423Y310409D01*
X191406Y310398D01*
X191339Y310320D01*
X191267Y310245D01*
X191259Y310227D01*
X191246Y310211D01*
X191207Y310115D01*
X191164Y310022D01*
X191162Y310002D01*
X191154Y309983D01*
X191136Y309817D01*
X191136Y301550D01*
X191139Y301530D01*
X191137Y301510D01*
X191159Y301409D01*
X191175Y301307D01*
X191185Y301289D01*
X191189Y301270D01*
X191242Y301181D01*
X191291Y301089D01*
X191305Y301076D01*
X191315Y301059D01*
X191394Y300991D01*
X191469Y300920D01*
X191487Y300912D01*
X191502Y300899D01*
X191598Y300860D01*
X191692Y300816D01*
X191712Y300814D01*
X191730Y300807D01*
X191863Y300792D01*
X195672Y298593D01*
X197867Y294791D01*
X197867Y271555D01*
X197881Y271465D01*
X197889Y271374D01*
X197901Y271344D01*
X197906Y271312D01*
X197949Y271231D01*
X197985Y271147D01*
X198011Y271115D01*
X198022Y271095D01*
X198045Y271072D01*
X198090Y271016D01*
X211837Y257269D01*
X211837Y225346D01*
X211852Y225250D01*
X211862Y225153D01*
X211872Y225129D01*
X211876Y225103D01*
X211922Y225017D01*
X211962Y224928D01*
X211979Y224909D01*
X211992Y224886D01*
X212062Y224819D01*
X212128Y224747D01*
X212151Y224734D01*
X212170Y224716D01*
X212258Y224675D01*
X212344Y224628D01*
X212369Y224624D01*
X212393Y224613D01*
X212490Y224602D01*
X212586Y224584D01*
X212612Y224588D01*
G37*
G36*
X201512Y251501D02*
X201512Y251501D01*
X201564Y251503D01*
X201632Y251527D01*
X201702Y251543D01*
X201747Y251569D01*
X201795Y251587D01*
X201851Y251632D01*
X201913Y251669D01*
X201947Y251708D01*
X201987Y251741D01*
X202026Y251801D01*
X202073Y251856D01*
X202092Y251904D01*
X202120Y251948D01*
X202138Y252017D01*
X202165Y252084D01*
X202173Y252155D01*
X202181Y252186D01*
X202179Y252210D01*
X202183Y252251D01*
X202183Y252955D01*
X202169Y253045D01*
X202161Y253136D01*
X202149Y253166D01*
X202144Y253198D01*
X202101Y253279D01*
X202065Y253363D01*
X202039Y253395D01*
X202028Y253415D01*
X202005Y253438D01*
X201960Y253494D01*
X188213Y267241D01*
X188213Y290374D01*
X188210Y290393D01*
X188212Y290413D01*
X188190Y290514D01*
X188174Y290616D01*
X188164Y290634D01*
X188160Y290653D01*
X188107Y290742D01*
X188058Y290834D01*
X188044Y290847D01*
X188034Y290865D01*
X187955Y290932D01*
X187880Y291003D01*
X187862Y291011D01*
X187847Y291024D01*
X187751Y291063D01*
X187657Y291107D01*
X187637Y291109D01*
X187619Y291116D01*
X187486Y291131D01*
X183677Y293330D01*
X181482Y297132D01*
X181482Y314234D01*
X183677Y318036D01*
X187483Y320233D01*
X187491Y320232D01*
X187593Y320254D01*
X187695Y320271D01*
X187712Y320280D01*
X187732Y320285D01*
X187821Y320338D01*
X187912Y320386D01*
X187926Y320400D01*
X187943Y320411D01*
X188010Y320489D01*
X188082Y320564D01*
X188090Y320582D01*
X188103Y320598D01*
X188142Y320694D01*
X188185Y320787D01*
X188187Y320807D01*
X188195Y320826D01*
X188213Y320992D01*
X188213Y321310D01*
X188210Y321330D01*
X188212Y321349D01*
X188190Y321451D01*
X188174Y321553D01*
X188164Y321570D01*
X188160Y321590D01*
X188107Y321679D01*
X188058Y321770D01*
X188044Y321784D01*
X188034Y321801D01*
X187955Y321868D01*
X187880Y321940D01*
X187862Y321948D01*
X187847Y321961D01*
X187751Y322000D01*
X187657Y322043D01*
X187637Y322045D01*
X187619Y322053D01*
X187452Y322071D01*
X173228Y322071D01*
X173208Y322068D01*
X173189Y322070D01*
X173087Y322048D01*
X172985Y322032D01*
X172968Y322022D01*
X172948Y322018D01*
X172859Y321965D01*
X172768Y321916D01*
X172754Y321902D01*
X172737Y321892D01*
X172670Y321813D01*
X172598Y321738D01*
X172590Y321720D01*
X172577Y321705D01*
X172538Y321609D01*
X172495Y321515D01*
X172493Y321495D01*
X172485Y321477D01*
X172467Y321310D01*
X172467Y280445D01*
X172481Y280355D01*
X172489Y280264D01*
X172501Y280234D01*
X172506Y280202D01*
X172549Y280121D01*
X172585Y280037D01*
X172611Y280005D01*
X172622Y279985D01*
X172645Y279962D01*
X172690Y279906D01*
X200884Y251712D01*
X200942Y251670D01*
X200994Y251621D01*
X201041Y251599D01*
X201083Y251569D01*
X201152Y251548D01*
X201217Y251517D01*
X201269Y251512D01*
X201319Y251496D01*
X201390Y251498D01*
X201461Y251490D01*
X201512Y251501D01*
G37*
%LPC*%
G36*
X291324Y984122D02*
X291324Y984122D01*
X287542Y985688D01*
X284648Y988582D01*
X283082Y992364D01*
X283082Y996456D01*
X284648Y1000238D01*
X287542Y1003132D01*
X291324Y1004698D01*
X295416Y1004698D01*
X299198Y1003132D01*
X302092Y1000238D01*
X303658Y996456D01*
X303658Y992364D01*
X302092Y988582D01*
X299198Y985688D01*
X295416Y984122D01*
X291324Y984122D01*
G37*
%LPD*%
%LPC*%
G36*
X138924Y526922D02*
X138924Y526922D01*
X135142Y528488D01*
X132248Y531382D01*
X130682Y535164D01*
X130682Y539256D01*
X132248Y543038D01*
X135142Y545932D01*
X138924Y547498D01*
X143016Y547498D01*
X146798Y545932D01*
X149692Y543038D01*
X151258Y539256D01*
X151258Y535164D01*
X149692Y531382D01*
X146798Y528488D01*
X143016Y526922D01*
X138924Y526922D01*
G37*
%LPD*%
%LPC*%
G36*
X138924Y501522D02*
X138924Y501522D01*
X135142Y503088D01*
X132248Y505982D01*
X130682Y509764D01*
X130682Y513856D01*
X132248Y517638D01*
X135142Y520532D01*
X138924Y522098D01*
X143016Y522098D01*
X146798Y520532D01*
X149692Y517638D01*
X151258Y513856D01*
X151258Y509764D01*
X149692Y505982D01*
X146798Y503088D01*
X143016Y501522D01*
X138924Y501522D01*
G37*
%LPD*%
%LPC*%
G36*
X291324Y476122D02*
X291324Y476122D01*
X287542Y477688D01*
X284648Y480582D01*
X283082Y484364D01*
X283082Y488456D01*
X284648Y492238D01*
X287542Y495132D01*
X291324Y496698D01*
X295416Y496698D01*
X299198Y495132D01*
X302092Y492238D01*
X303658Y488456D01*
X303658Y484364D01*
X302092Y480582D01*
X299198Y477688D01*
X295416Y476122D01*
X291324Y476122D01*
G37*
%LPD*%
%LPC*%
G36*
X138924Y476122D02*
X138924Y476122D01*
X135142Y477688D01*
X132248Y480582D01*
X130682Y484364D01*
X130682Y488456D01*
X132248Y492238D01*
X135142Y495132D01*
X138924Y496698D01*
X143016Y496698D01*
X146798Y495132D01*
X149692Y492238D01*
X151258Y488456D01*
X151258Y484364D01*
X149692Y480582D01*
X146798Y477688D01*
X143016Y476122D01*
X138924Y476122D01*
G37*
%LPD*%
%LPC*%
G36*
X291324Y450722D02*
X291324Y450722D01*
X287542Y452288D01*
X284648Y455182D01*
X283082Y458964D01*
X283082Y463056D01*
X284648Y466838D01*
X287542Y469732D01*
X291324Y471298D01*
X295416Y471298D01*
X299198Y469732D01*
X302092Y466838D01*
X303658Y463056D01*
X303658Y458964D01*
X302092Y455182D01*
X299198Y452288D01*
X295416Y450722D01*
X291324Y450722D01*
G37*
%LPD*%
%LPC*%
G36*
X138924Y958722D02*
X138924Y958722D01*
X135142Y960288D01*
X132248Y963182D01*
X130682Y966964D01*
X130682Y971056D01*
X132248Y974838D01*
X135142Y977732D01*
X138924Y979298D01*
X143016Y979298D01*
X146798Y977732D01*
X149692Y974838D01*
X151258Y971056D01*
X151258Y966964D01*
X149692Y963182D01*
X146798Y960288D01*
X143016Y958722D01*
X138924Y958722D01*
G37*
%LPD*%
%LPC*%
G36*
X265924Y958722D02*
X265924Y958722D01*
X262142Y960288D01*
X259248Y963182D01*
X257682Y966964D01*
X257682Y971056D01*
X259248Y974838D01*
X262142Y977732D01*
X265924Y979298D01*
X270016Y979298D01*
X273798Y977732D01*
X276692Y974838D01*
X278258Y971056D01*
X278258Y966964D01*
X276692Y963182D01*
X273798Y960288D01*
X270016Y958722D01*
X265924Y958722D01*
G37*
%LPD*%
%LPC*%
G36*
X265924Y882522D02*
X265924Y882522D01*
X262142Y884088D01*
X259248Y886982D01*
X257682Y890764D01*
X257682Y894856D01*
X259248Y898638D01*
X262142Y901532D01*
X265924Y903098D01*
X270016Y903098D01*
X273798Y901532D01*
X276692Y898638D01*
X278258Y894856D01*
X278258Y890764D01*
X276692Y886982D01*
X273798Y884088D01*
X270016Y882522D01*
X265924Y882522D01*
G37*
%LPD*%
%LPC*%
G36*
X138924Y450722D02*
X138924Y450722D01*
X135142Y452288D01*
X132248Y455182D01*
X130682Y458964D01*
X130682Y463056D01*
X132248Y466838D01*
X135142Y469732D01*
X138924Y471298D01*
X143016Y471298D01*
X146798Y469732D01*
X149692Y466838D01*
X151258Y463056D01*
X151258Y458964D01*
X149692Y455182D01*
X146798Y452288D01*
X143016Y450722D01*
X138924Y450722D01*
G37*
%LPD*%
%LPC*%
G36*
X291324Y425322D02*
X291324Y425322D01*
X287542Y426888D01*
X284648Y429782D01*
X283082Y433564D01*
X283082Y437656D01*
X284648Y441438D01*
X287542Y444332D01*
X291324Y445898D01*
X295416Y445898D01*
X299198Y444332D01*
X302092Y441438D01*
X303658Y437656D01*
X303658Y433564D01*
X302092Y429782D01*
X299198Y426888D01*
X295416Y425322D01*
X291324Y425322D01*
G37*
%LPD*%
%LPC*%
G36*
X138924Y425322D02*
X138924Y425322D01*
X135142Y426888D01*
X132248Y429782D01*
X130682Y433564D01*
X130682Y437656D01*
X132248Y441438D01*
X135142Y444332D01*
X138924Y445898D01*
X143016Y445898D01*
X146798Y444332D01*
X149692Y441438D01*
X151258Y437656D01*
X151258Y433564D01*
X149692Y429782D01*
X146798Y426888D01*
X143016Y425322D01*
X138924Y425322D01*
G37*
%LPD*%
%LPC*%
G36*
X291324Y399922D02*
X291324Y399922D01*
X287542Y401488D01*
X284648Y404382D01*
X283082Y408164D01*
X283082Y412256D01*
X284648Y416038D01*
X287542Y418932D01*
X291324Y420498D01*
X295416Y420498D01*
X299198Y418932D01*
X302092Y416038D01*
X303658Y412256D01*
X303658Y408164D01*
X302092Y404382D01*
X299198Y401488D01*
X295416Y399922D01*
X291324Y399922D01*
G37*
%LPD*%
%LPC*%
G36*
X138924Y933322D02*
X138924Y933322D01*
X135142Y934888D01*
X132248Y937782D01*
X130682Y941564D01*
X130682Y945656D01*
X132248Y949438D01*
X135142Y952332D01*
X138924Y953898D01*
X143016Y953898D01*
X146798Y952332D01*
X149692Y949438D01*
X151258Y945656D01*
X151258Y941564D01*
X149692Y937782D01*
X146798Y934888D01*
X143016Y933322D01*
X138924Y933322D01*
G37*
%LPD*%
%LPC*%
G36*
X291324Y933322D02*
X291324Y933322D01*
X287542Y934888D01*
X284648Y937782D01*
X283082Y941564D01*
X283082Y945656D01*
X284648Y949438D01*
X287542Y952332D01*
X291324Y953898D01*
X295416Y953898D01*
X299198Y952332D01*
X302092Y949438D01*
X303658Y945656D01*
X303658Y941564D01*
X302092Y937782D01*
X299198Y934888D01*
X295416Y933322D01*
X291324Y933322D01*
G37*
%LPD*%
%LPC*%
G36*
X265924Y907922D02*
X265924Y907922D01*
X262142Y909488D01*
X259248Y912382D01*
X257682Y916164D01*
X257682Y920256D01*
X259248Y924038D01*
X262142Y926932D01*
X265924Y928498D01*
X270016Y928498D01*
X273798Y926932D01*
X276692Y924038D01*
X278258Y920256D01*
X278258Y916164D01*
X276692Y912382D01*
X273798Y909488D01*
X270016Y907922D01*
X265924Y907922D01*
G37*
%LPD*%
%LPC*%
G36*
X291324Y907922D02*
X291324Y907922D01*
X287542Y909488D01*
X284648Y912382D01*
X283082Y916164D01*
X283082Y920256D01*
X284648Y924038D01*
X287542Y926932D01*
X291324Y928498D01*
X295416Y928498D01*
X299198Y926932D01*
X302092Y924038D01*
X303658Y920256D01*
X303658Y916164D01*
X302092Y912382D01*
X299198Y909488D01*
X295416Y907922D01*
X291324Y907922D01*
G37*
%LPD*%
%LPC*%
G36*
X138924Y399922D02*
X138924Y399922D01*
X135142Y401488D01*
X132248Y404382D01*
X130682Y408164D01*
X130682Y412256D01*
X132248Y416038D01*
X135142Y418932D01*
X138924Y420498D01*
X143016Y420498D01*
X146798Y418932D01*
X149692Y416038D01*
X151258Y412256D01*
X151258Y408164D01*
X149692Y404382D01*
X146798Y401488D01*
X143016Y399922D01*
X138924Y399922D01*
G37*
%LPD*%
%LPC*%
G36*
X138924Y882522D02*
X138924Y882522D01*
X135142Y884088D01*
X132248Y886982D01*
X130682Y890764D01*
X130682Y894856D01*
X132248Y898638D01*
X135142Y901532D01*
X138924Y903098D01*
X143016Y903098D01*
X146798Y901532D01*
X149692Y898638D01*
X151258Y894856D01*
X151258Y890764D01*
X149692Y886982D01*
X146798Y884088D01*
X143016Y882522D01*
X138924Y882522D01*
G37*
%LPD*%
%LPC*%
G36*
X291324Y882522D02*
X291324Y882522D01*
X287542Y884088D01*
X284648Y886982D01*
X283082Y890764D01*
X283082Y894856D01*
X284648Y898638D01*
X287542Y901532D01*
X291324Y903098D01*
X295416Y903098D01*
X299198Y901532D01*
X302092Y898638D01*
X303658Y894856D01*
X303658Y890764D01*
X302092Y886982D01*
X299198Y884088D01*
X295416Y882522D01*
X291324Y882522D01*
G37*
%LPD*%
%LPC*%
G36*
X138924Y857122D02*
X138924Y857122D01*
X135142Y858688D01*
X132248Y861582D01*
X130682Y865364D01*
X130682Y869456D01*
X132248Y873238D01*
X135142Y876132D01*
X138924Y877698D01*
X143016Y877698D01*
X146798Y876132D01*
X149692Y873238D01*
X151258Y869456D01*
X151258Y865364D01*
X149692Y861582D01*
X146798Y858688D01*
X143016Y857122D01*
X138924Y857122D01*
G37*
%LPD*%
%LPC*%
G36*
X291324Y857122D02*
X291324Y857122D01*
X287542Y858688D01*
X284648Y861582D01*
X283082Y865364D01*
X283082Y869456D01*
X284648Y873238D01*
X287542Y876132D01*
X291324Y877698D01*
X295416Y877698D01*
X299198Y876132D01*
X302092Y873238D01*
X303658Y869456D01*
X303658Y865364D01*
X302092Y861582D01*
X299198Y858688D01*
X295416Y857122D01*
X291324Y857122D01*
G37*
%LPD*%
%LPC*%
G36*
X265924Y857122D02*
X265924Y857122D01*
X262142Y858688D01*
X259248Y861582D01*
X257682Y865364D01*
X257682Y869456D01*
X259248Y873238D01*
X262142Y876132D01*
X265924Y877698D01*
X270016Y877698D01*
X273798Y876132D01*
X276692Y873238D01*
X278258Y869456D01*
X278258Y865364D01*
X276692Y861582D01*
X273798Y858688D01*
X270016Y857122D01*
X265924Y857122D01*
G37*
%LPD*%
%LPC*%
G36*
X291324Y831722D02*
X291324Y831722D01*
X287542Y833288D01*
X284648Y836182D01*
X283082Y839964D01*
X283082Y844056D01*
X284648Y847838D01*
X287542Y850732D01*
X291324Y852298D01*
X295416Y852298D01*
X299198Y850732D01*
X302092Y847838D01*
X303658Y844056D01*
X303658Y839964D01*
X302092Y836182D01*
X299198Y833288D01*
X295416Y831722D01*
X291324Y831722D01*
G37*
%LPD*%
%LPC*%
G36*
X138924Y831722D02*
X138924Y831722D01*
X135142Y833288D01*
X132248Y836182D01*
X130682Y839964D01*
X130682Y844056D01*
X132248Y847838D01*
X135142Y850732D01*
X138924Y852298D01*
X143016Y852298D01*
X146798Y850732D01*
X149692Y847838D01*
X151258Y844056D01*
X151258Y839964D01*
X149692Y836182D01*
X146798Y833288D01*
X143016Y831722D01*
X138924Y831722D01*
G37*
%LPD*%
%LPC*%
G36*
X291324Y806322D02*
X291324Y806322D01*
X287542Y807888D01*
X284648Y810782D01*
X283082Y814564D01*
X283082Y818656D01*
X284648Y822438D01*
X287542Y825332D01*
X291324Y826898D01*
X295416Y826898D01*
X299198Y825332D01*
X302092Y822438D01*
X303658Y818656D01*
X303658Y814564D01*
X302092Y810782D01*
X299198Y807888D01*
X295416Y806322D01*
X291324Y806322D01*
G37*
%LPD*%
%LPC*%
G36*
X138924Y806322D02*
X138924Y806322D01*
X135142Y807888D01*
X132248Y810782D01*
X130682Y814564D01*
X130682Y818656D01*
X132248Y822438D01*
X135142Y825332D01*
X138924Y826898D01*
X143016Y826898D01*
X146798Y825332D01*
X149692Y822438D01*
X151258Y818656D01*
X151258Y814564D01*
X149692Y810782D01*
X146798Y807888D01*
X143016Y806322D01*
X138924Y806322D01*
G37*
%LPD*%
%LPC*%
G36*
X291324Y780922D02*
X291324Y780922D01*
X287542Y782488D01*
X284648Y785382D01*
X283082Y789164D01*
X283082Y793256D01*
X284648Y797038D01*
X287542Y799932D01*
X291324Y801498D01*
X295416Y801498D01*
X299198Y799932D01*
X302092Y797038D01*
X303658Y793256D01*
X303658Y789164D01*
X302092Y785382D01*
X299198Y782488D01*
X295416Y780922D01*
X291324Y780922D01*
G37*
%LPD*%
%LPC*%
G36*
X138924Y780922D02*
X138924Y780922D01*
X135142Y782488D01*
X132248Y785382D01*
X130682Y789164D01*
X130682Y793256D01*
X132248Y797038D01*
X135142Y799932D01*
X138924Y801498D01*
X143016Y801498D01*
X146798Y799932D01*
X149692Y797038D01*
X151258Y793256D01*
X151258Y789164D01*
X149692Y785382D01*
X146798Y782488D01*
X143016Y780922D01*
X138924Y780922D01*
G37*
%LPD*%
%LPC*%
G36*
X138924Y730122D02*
X138924Y730122D01*
X135142Y731688D01*
X132248Y734582D01*
X130682Y738364D01*
X130682Y742456D01*
X132248Y746238D01*
X135142Y749132D01*
X138924Y750698D01*
X143016Y750698D01*
X146798Y749132D01*
X149692Y746238D01*
X151258Y742456D01*
X151258Y738364D01*
X149692Y734582D01*
X146798Y731688D01*
X143016Y730122D01*
X138924Y730122D01*
G37*
%LPD*%
%LPC*%
G36*
X291324Y704722D02*
X291324Y704722D01*
X287542Y706288D01*
X284648Y709182D01*
X283082Y712964D01*
X283082Y717056D01*
X284648Y720838D01*
X287542Y723732D01*
X291324Y725298D01*
X295416Y725298D01*
X299198Y723732D01*
X302092Y720838D01*
X303658Y717056D01*
X303658Y712964D01*
X302092Y709182D01*
X299198Y706288D01*
X295416Y704722D01*
X291324Y704722D01*
G37*
%LPD*%
%LPC*%
G36*
X291324Y679322D02*
X291324Y679322D01*
X287542Y680888D01*
X284648Y683782D01*
X283082Y687564D01*
X283082Y691656D01*
X284648Y695438D01*
X287542Y698332D01*
X291324Y699898D01*
X295416Y699898D01*
X299198Y698332D01*
X302092Y695438D01*
X303658Y691656D01*
X303658Y687564D01*
X302092Y683782D01*
X299198Y680888D01*
X295416Y679322D01*
X291324Y679322D01*
G37*
%LPD*%
%LPC*%
G36*
X138924Y653922D02*
X138924Y653922D01*
X135142Y655488D01*
X132248Y658382D01*
X130682Y662164D01*
X130682Y666256D01*
X132248Y670038D01*
X135142Y672932D01*
X138924Y674498D01*
X143016Y674498D01*
X146798Y672932D01*
X149692Y670038D01*
X151258Y666256D01*
X151258Y662164D01*
X149692Y658382D01*
X146798Y655488D01*
X143016Y653922D01*
X138924Y653922D01*
G37*
%LPD*%
%LPC*%
G36*
X291324Y501522D02*
X291324Y501522D01*
X287542Y503088D01*
X284648Y505982D01*
X283082Y509764D01*
X283082Y513856D01*
X284648Y517638D01*
X287542Y520532D01*
X291324Y522098D01*
X295416Y522098D01*
X299198Y520532D01*
X302092Y517638D01*
X303658Y513856D01*
X303658Y509764D01*
X302092Y505982D01*
X299198Y503088D01*
X295416Y501522D01*
X291324Y501522D01*
G37*
%LPD*%
%LPC*%
G36*
X291324Y603122D02*
X291324Y603122D01*
X287542Y604688D01*
X284648Y607582D01*
X283082Y611364D01*
X283082Y615456D01*
X284648Y619238D01*
X287542Y622132D01*
X291324Y623698D01*
X295416Y623698D01*
X299198Y622132D01*
X302092Y619238D01*
X303658Y615456D01*
X303658Y611364D01*
X302092Y607582D01*
X299198Y604688D01*
X295416Y603122D01*
X291324Y603122D01*
G37*
%LPD*%
%LPC*%
G36*
X138924Y577722D02*
X138924Y577722D01*
X135142Y579288D01*
X132248Y582182D01*
X130682Y585964D01*
X130682Y590056D01*
X132248Y593838D01*
X135142Y596732D01*
X138924Y598298D01*
X143016Y598298D01*
X146798Y596732D01*
X149692Y593838D01*
X151258Y590056D01*
X151258Y585964D01*
X149692Y582182D01*
X146798Y579288D01*
X143016Y577722D01*
X138924Y577722D01*
G37*
%LPD*%
%LPC*%
G36*
X291324Y577722D02*
X291324Y577722D01*
X287542Y579288D01*
X284648Y582182D01*
X283082Y585964D01*
X283082Y590056D01*
X284648Y593838D01*
X287542Y596732D01*
X291324Y598298D01*
X295416Y598298D01*
X299198Y596732D01*
X302092Y593838D01*
X303658Y590056D01*
X303658Y585964D01*
X302092Y582182D01*
X299198Y579288D01*
X295416Y577722D01*
X291324Y577722D01*
G37*
%LPD*%
%LPC*%
G36*
X138924Y552322D02*
X138924Y552322D01*
X135142Y553888D01*
X132248Y556782D01*
X130682Y560564D01*
X130682Y564656D01*
X132248Y568438D01*
X135142Y571332D01*
X138924Y572898D01*
X143016Y572898D01*
X146798Y571332D01*
X149692Y568438D01*
X151258Y564656D01*
X151258Y560564D01*
X149692Y556782D01*
X146798Y553888D01*
X143016Y552322D01*
X138924Y552322D01*
G37*
%LPD*%
%LPC*%
G36*
X291324Y526922D02*
X291324Y526922D01*
X287542Y528488D01*
X284648Y531382D01*
X283082Y535164D01*
X283082Y539256D01*
X284648Y543038D01*
X287542Y545932D01*
X291324Y547498D01*
X295416Y547498D01*
X299198Y545932D01*
X302092Y543038D01*
X303658Y539256D01*
X303658Y535164D01*
X302092Y531382D01*
X299198Y528488D01*
X295416Y526922D01*
X291324Y526922D01*
G37*
%LPD*%
%LPC*%
G36*
X169699Y207463D02*
X169699Y207463D01*
X167739Y208275D01*
X166238Y209776D01*
X165426Y211737D01*
X165426Y213859D01*
X166238Y215820D01*
X167739Y217321D01*
X169699Y218133D01*
X171822Y218133D01*
X173782Y217321D01*
X175283Y215820D01*
X175854Y214443D01*
X175891Y214382D01*
X175920Y214316D01*
X175956Y214278D01*
X175983Y214234D01*
X176039Y214188D01*
X176087Y214135D01*
X176132Y214110D01*
X176173Y214077D01*
X176240Y214051D01*
X176302Y214016D01*
X176354Y214007D01*
X176402Y213989D01*
X176474Y213985D01*
X176544Y213973D01*
X176596Y213980D01*
X176648Y213978D01*
X176717Y213998D01*
X176788Y214009D01*
X176834Y214032D01*
X176884Y214047D01*
X176943Y214087D01*
X177007Y214120D01*
X177044Y214157D01*
X177086Y214187D01*
X177129Y214244D01*
X177179Y214296D01*
X177214Y214358D01*
X177233Y214384D01*
X177240Y214407D01*
X177260Y214443D01*
X178063Y216382D01*
X179564Y217883D01*
X181525Y218695D01*
X183647Y218695D01*
X185608Y217883D01*
X187109Y216382D01*
X187921Y214421D01*
X187921Y212299D01*
X187109Y210338D01*
X185608Y208837D01*
X183647Y208025D01*
X181525Y208025D01*
X179564Y208837D01*
X178063Y210338D01*
X177493Y211715D01*
X177455Y211776D01*
X177426Y211842D01*
X177391Y211880D01*
X177363Y211924D01*
X177308Y211970D01*
X177260Y212023D01*
X177214Y212048D01*
X177174Y212081D01*
X177107Y212107D01*
X177044Y212142D01*
X176993Y212151D01*
X176944Y212169D01*
X176873Y212173D01*
X176802Y212185D01*
X176751Y212178D01*
X176698Y212180D01*
X176630Y212160D01*
X176559Y212149D01*
X176512Y212126D01*
X176462Y212111D01*
X176403Y212071D01*
X176339Y212038D01*
X176303Y212001D01*
X176260Y211971D01*
X176217Y211914D01*
X176167Y211862D01*
X176133Y211800D01*
X176113Y211774D01*
X176106Y211751D01*
X176086Y211715D01*
X175283Y209776D01*
X173782Y208275D01*
X171822Y207463D01*
X169699Y207463D01*
G37*
%LPD*%
%LPC*%
G36*
X106586Y170941D02*
X106586Y170941D01*
X104065Y171985D01*
X102135Y173915D01*
X101091Y176436D01*
X101091Y179164D01*
X102135Y181685D01*
X104065Y183615D01*
X106586Y184659D01*
X109314Y184659D01*
X111835Y183615D01*
X113765Y181685D01*
X114809Y179164D01*
X114809Y176436D01*
X113765Y173915D01*
X111835Y171985D01*
X109314Y170941D01*
X106586Y170941D01*
G37*
%LPD*%
%LPC*%
G36*
X436532Y243585D02*
X436532Y243585D01*
X434011Y244629D01*
X432081Y246559D01*
X431037Y249080D01*
X431037Y251808D01*
X432081Y254329D01*
X434011Y256259D01*
X436532Y257303D01*
X439260Y257303D01*
X441781Y256259D01*
X443711Y254329D01*
X444755Y251808D01*
X444755Y249080D01*
X443711Y246559D01*
X441781Y244629D01*
X439260Y243585D01*
X436532Y243585D01*
G37*
%LPD*%
%LPC*%
G36*
X184056Y24891D02*
X184056Y24891D01*
X181535Y25935D01*
X179605Y27865D01*
X178561Y30386D01*
X178561Y33114D01*
X179605Y35635D01*
X181535Y37565D01*
X184056Y38609D01*
X186784Y38609D01*
X189305Y37565D01*
X191235Y35635D01*
X192279Y33114D01*
X192279Y30386D01*
X191235Y27865D01*
X189305Y25935D01*
X186784Y24891D01*
X184056Y24891D01*
G37*
%LPD*%
%LPC*%
G36*
X321563Y345693D02*
X321563Y345693D01*
X321563Y361836D01*
X322419Y361701D01*
X323940Y361206D01*
X325365Y360480D01*
X326659Y359540D01*
X327790Y358409D01*
X328730Y357115D01*
X329456Y355690D01*
X329951Y354169D01*
X330201Y352590D01*
X330201Y345693D01*
X321563Y345693D01*
G37*
%LPD*%
%LPC*%
G36*
X309879Y345693D02*
X309879Y345693D01*
X309879Y352590D01*
X310129Y354169D01*
X310624Y355690D01*
X311350Y357115D01*
X312290Y358409D01*
X313421Y359540D01*
X314715Y360480D01*
X316140Y361206D01*
X317661Y361701D01*
X318517Y361836D01*
X318517Y345693D01*
X309879Y345693D01*
G37*
%LPD*%
%LPC*%
G36*
X119698Y248951D02*
X119698Y248951D01*
X117469Y249875D01*
X115763Y251581D01*
X114839Y253810D01*
X114839Y256222D01*
X115763Y258451D01*
X117469Y260157D01*
X119698Y261081D01*
X122110Y261081D01*
X124339Y260157D01*
X126045Y258451D01*
X126969Y256222D01*
X126969Y253810D01*
X126045Y251581D01*
X124339Y249875D01*
X122110Y248951D01*
X119698Y248951D01*
G37*
%LPD*%
%LPC*%
G36*
X270320Y152819D02*
X270320Y152819D01*
X268091Y153743D01*
X266385Y155449D01*
X265461Y157678D01*
X265461Y160090D01*
X266385Y162319D01*
X268091Y164025D01*
X270320Y164949D01*
X272732Y164949D01*
X274961Y164025D01*
X276667Y162319D01*
X277591Y160090D01*
X277591Y157678D01*
X276667Y155449D01*
X274961Y153743D01*
X272732Y152819D01*
X270320Y152819D01*
G37*
%LPD*%
%LPC*%
G36*
X322644Y77755D02*
X322644Y77755D01*
X320415Y78679D01*
X318709Y80385D01*
X317785Y82614D01*
X317785Y85026D01*
X318709Y87255D01*
X320415Y88961D01*
X322644Y89885D01*
X325056Y89885D01*
X327285Y88961D01*
X328991Y87255D01*
X329915Y85026D01*
X329915Y82614D01*
X328991Y80385D01*
X327285Y78679D01*
X325056Y77755D01*
X322644Y77755D01*
G37*
%LPD*%
%LPC*%
G36*
X106744Y72675D02*
X106744Y72675D01*
X104515Y73599D01*
X102809Y75305D01*
X101885Y77534D01*
X101885Y79946D01*
X102809Y82175D01*
X104515Y83881D01*
X106744Y84805D01*
X109156Y84805D01*
X111385Y83881D01*
X113091Y82175D01*
X114015Y79946D01*
X114015Y77534D01*
X113091Y75305D01*
X111385Y73599D01*
X109156Y72675D01*
X106744Y72675D01*
G37*
%LPD*%
%LPC*%
G36*
X302114Y210311D02*
X302114Y210311D01*
X299966Y211201D01*
X298323Y212844D01*
X297433Y214992D01*
X297433Y217316D01*
X298323Y219464D01*
X299966Y221107D01*
X302114Y221997D01*
X304438Y221997D01*
X306586Y221107D01*
X308229Y219464D01*
X309119Y217316D01*
X309119Y214992D01*
X308229Y212844D01*
X306586Y211201D01*
X304438Y210311D01*
X302114Y210311D01*
G37*
%LPD*%
%LPC*%
G36*
X147428Y137667D02*
X147428Y137667D01*
X145280Y138557D01*
X143637Y140200D01*
X142747Y142348D01*
X142747Y144672D01*
X143637Y146820D01*
X145280Y148463D01*
X147428Y149353D01*
X149752Y149353D01*
X151900Y148463D01*
X153543Y146820D01*
X154433Y144672D01*
X154433Y142348D01*
X153543Y140200D01*
X151900Y138557D01*
X149752Y137667D01*
X147428Y137667D01*
G37*
%LPD*%
%LPC*%
G36*
X169018Y120649D02*
X169018Y120649D01*
X166870Y121539D01*
X165227Y123182D01*
X164337Y125330D01*
X164337Y127654D01*
X165227Y129802D01*
X166870Y131445D01*
X169018Y132335D01*
X171342Y132335D01*
X173490Y131445D01*
X175133Y129802D01*
X176023Y127654D01*
X176023Y125330D01*
X175133Y123182D01*
X173490Y121539D01*
X171342Y120649D01*
X169018Y120649D01*
G37*
%LPD*%
%LPC*%
G36*
X118726Y104647D02*
X118726Y104647D01*
X116578Y105537D01*
X114935Y107180D01*
X114045Y109328D01*
X114045Y111652D01*
X114935Y113800D01*
X116578Y115443D01*
X118726Y116333D01*
X121050Y116333D01*
X123198Y115443D01*
X124841Y113800D01*
X125731Y111652D01*
X125731Y109328D01*
X124841Y107180D01*
X123198Y105537D01*
X121050Y104647D01*
X118726Y104647D01*
G37*
%LPD*%
%LPC*%
G36*
X187306Y83311D02*
X187306Y83311D01*
X185158Y84201D01*
X183515Y85844D01*
X182625Y87992D01*
X182625Y90316D01*
X183515Y92464D01*
X185158Y94107D01*
X187306Y94997D01*
X189630Y94997D01*
X191778Y94107D01*
X193421Y92464D01*
X194311Y90316D01*
X194311Y87992D01*
X193421Y85844D01*
X191778Y84201D01*
X189630Y83311D01*
X187306Y83311D01*
G37*
%LPD*%
%LPC*%
G36*
X127113Y278665D02*
X127113Y278665D01*
X124976Y279551D01*
X123341Y281186D01*
X122455Y283323D01*
X122455Y285637D01*
X123341Y287774D01*
X124976Y289409D01*
X127113Y290295D01*
X129427Y290295D01*
X131564Y289409D01*
X133199Y287774D01*
X134085Y285637D01*
X134085Y283323D01*
X133199Y281186D01*
X131564Y279551D01*
X129427Y278665D01*
X127113Y278665D01*
G37*
%LPD*%
%LPC*%
G36*
X321423Y61495D02*
X321423Y61495D01*
X319286Y62381D01*
X317651Y64016D01*
X316765Y66153D01*
X316765Y68467D01*
X317651Y70604D01*
X319286Y72239D01*
X321423Y73125D01*
X323737Y73125D01*
X325874Y72239D01*
X327509Y70604D01*
X328395Y68467D01*
X328395Y66153D01*
X327509Y64016D01*
X325874Y62381D01*
X323737Y61495D01*
X321423Y61495D01*
G37*
%LPD*%
%LPC*%
G36*
X142493Y995933D02*
X142493Y995933D01*
X142493Y1004070D01*
X143260Y1003949D01*
X144724Y1003473D01*
X146096Y1002774D01*
X147341Y1001870D01*
X148430Y1000781D01*
X149334Y999536D01*
X150033Y998164D01*
X150509Y996700D01*
X150630Y995933D01*
X142493Y995933D01*
G37*
%LPD*%
%LPC*%
G36*
X294893Y970533D02*
X294893Y970533D01*
X294893Y978670D01*
X295660Y978549D01*
X297124Y978073D01*
X298496Y977374D01*
X299741Y976470D01*
X300830Y975381D01*
X301734Y974136D01*
X302433Y972764D01*
X302909Y971300D01*
X303030Y970533D01*
X294893Y970533D01*
G37*
%LPD*%
%LPC*%
G36*
X294893Y640333D02*
X294893Y640333D01*
X294893Y648470D01*
X295660Y648349D01*
X297124Y647873D01*
X298496Y647174D01*
X299741Y646270D01*
X300830Y645181D01*
X301734Y643936D01*
X302433Y642564D01*
X302909Y641100D01*
X303030Y640333D01*
X294893Y640333D01*
G37*
%LPD*%
%LPC*%
G36*
X131310Y995933D02*
X131310Y995933D01*
X131431Y996700D01*
X131907Y998164D01*
X132606Y999536D01*
X133510Y1000781D01*
X134599Y1001870D01*
X135844Y1002774D01*
X137216Y1003473D01*
X138680Y1003949D01*
X139447Y1004070D01*
X139447Y995933D01*
X131310Y995933D01*
G37*
%LPD*%
%LPC*%
G36*
X142493Y992887D02*
X142493Y992887D01*
X150630Y992887D01*
X150509Y992120D01*
X150033Y990656D01*
X149334Y989284D01*
X148430Y988039D01*
X147341Y986950D01*
X146096Y986046D01*
X144724Y985347D01*
X143260Y984871D01*
X142493Y984750D01*
X142493Y992887D01*
G37*
%LPD*%
%LPC*%
G36*
X283710Y970533D02*
X283710Y970533D01*
X283831Y971300D01*
X284307Y972764D01*
X285006Y974136D01*
X285910Y975381D01*
X286999Y976470D01*
X288244Y977374D01*
X289616Y978073D01*
X291080Y978549D01*
X291847Y978670D01*
X291847Y970533D01*
X283710Y970533D01*
G37*
%LPD*%
%LPC*%
G36*
X294893Y967487D02*
X294893Y967487D01*
X303030Y967487D01*
X302909Y966720D01*
X302433Y965256D01*
X301734Y963884D01*
X300830Y962639D01*
X299741Y961550D01*
X298496Y960646D01*
X297124Y959947D01*
X295660Y959471D01*
X294893Y959350D01*
X294893Y967487D01*
G37*
%LPD*%
%LPC*%
G36*
X294893Y637287D02*
X294893Y637287D01*
X303030Y637287D01*
X302909Y636520D01*
X302433Y635056D01*
X301734Y633684D01*
X300830Y632439D01*
X299741Y631350D01*
X298496Y630446D01*
X297124Y629747D01*
X295660Y629271D01*
X294893Y629150D01*
X294893Y637287D01*
G37*
%LPD*%
%LPC*%
G36*
X283710Y640333D02*
X283710Y640333D01*
X283831Y641100D01*
X284307Y642564D01*
X285006Y643936D01*
X285910Y645181D01*
X286999Y646270D01*
X288244Y647174D01*
X289616Y647873D01*
X291080Y648349D01*
X291847Y648470D01*
X291847Y640333D01*
X283710Y640333D01*
G37*
%LPD*%
%LPC*%
G36*
X138680Y984871D02*
X138680Y984871D01*
X137216Y985347D01*
X135844Y986046D01*
X134599Y986950D01*
X133510Y988039D01*
X132606Y989284D01*
X131907Y990656D01*
X131431Y992120D01*
X131310Y992887D01*
X139447Y992887D01*
X139447Y984750D01*
X138680Y984871D01*
G37*
%LPD*%
%LPC*%
G36*
X291080Y959471D02*
X291080Y959471D01*
X289616Y959947D01*
X288244Y960646D01*
X286999Y961550D01*
X285910Y962639D01*
X285006Y963884D01*
X284307Y965256D01*
X283831Y966720D01*
X283710Y967487D01*
X291847Y967487D01*
X291847Y959350D01*
X291080Y959471D01*
G37*
%LPD*%
%LPC*%
G36*
X291080Y629271D02*
X291080Y629271D01*
X289616Y629747D01*
X288244Y630446D01*
X286999Y631350D01*
X285910Y632439D01*
X285006Y633684D01*
X284307Y635056D01*
X283831Y636520D01*
X283710Y637287D01*
X291847Y637287D01*
X291847Y629150D01*
X291080Y629271D01*
G37*
%LPD*%
%LPC*%
G36*
X140969Y994409D02*
X140969Y994409D01*
X140969Y994411D01*
X140971Y994411D01*
X140971Y994409D01*
X140969Y994409D01*
G37*
%LPD*%
%LPC*%
G36*
X293369Y969009D02*
X293369Y969009D01*
X293369Y969011D01*
X293371Y969011D01*
X293371Y969009D01*
X293369Y969009D01*
G37*
%LPD*%
%LPC*%
G36*
X293369Y638809D02*
X293369Y638809D01*
X293369Y638811D01*
X293371Y638811D01*
X293371Y638809D01*
X293369Y638809D01*
G37*
%LPD*%
D10*
X16510Y254000D03*
X16510Y101600D03*
D11*
X167640Y336550D02*
X167640Y351790D01*
X193040Y351790D02*
X193040Y336550D01*
X218440Y336550D02*
X218440Y351790D01*
X243840Y351790D02*
X243840Y336550D01*
X269240Y336550D02*
X269240Y351790D01*
X294640Y351790D02*
X294640Y336550D01*
X320040Y336550D02*
X320040Y351790D01*
X142240Y351790D02*
X142240Y336550D01*
D12*
X480060Y223647D03*
X480060Y138557D03*
D13*
X140970Y943610D03*
X140970Y918210D03*
X140970Y892810D03*
X140970Y867410D03*
X140970Y842010D03*
X140970Y816610D03*
X140970Y791210D03*
X140970Y765810D03*
X140970Y740410D03*
X140970Y715010D03*
X140970Y689610D03*
X140970Y664210D03*
X293370Y664210D03*
X293370Y689610D03*
X293370Y715010D03*
X293370Y740410D03*
X293370Y765810D03*
X293370Y791210D03*
X293370Y816610D03*
X293370Y842010D03*
X293370Y867410D03*
X293370Y892810D03*
X293370Y918210D03*
X140970Y969010D03*
X293370Y943610D03*
X293370Y969010D03*
X140970Y994410D03*
X293370Y994410D03*
X140970Y638810D03*
X293370Y638810D03*
X140970Y613410D03*
X140970Y588010D03*
X140970Y562610D03*
X140970Y537210D03*
X140970Y511810D03*
X140970Y486410D03*
X140970Y461010D03*
X140970Y435610D03*
X140970Y410210D03*
X293370Y410210D03*
X293370Y435610D03*
X293370Y461010D03*
X293370Y486410D03*
X293370Y511810D03*
X293370Y537210D03*
X293370Y562610D03*
X293370Y588010D03*
X293370Y613410D03*
X267970Y969010D03*
X267970Y918210D03*
X267970Y892810D03*
X267970Y867410D03*
D14*
X412750Y773310D02*
X412750Y758310D01*
X387350Y758310D02*
X387350Y773310D01*
D12*
X26670Y824865D03*
X26670Y909955D03*
X26670Y635635D03*
X26670Y720725D03*
D15*
X217678Y170434D03*
X217098Y190300D03*
D16*
X16510Y111760D03*
X34544Y111760D03*
X59436Y111760D03*
X73152Y121920D03*
X82042Y130810D03*
X83312Y139700D03*
X99822Y151130D03*
X108712Y160020D03*
X16510Y91440D03*
X34290Y91440D03*
X62230Y92710D03*
X78740Y101600D03*
X87630Y113030D03*
X93726Y119634D03*
X107442Y131572D03*
X114046Y139192D03*
X118364Y144526D03*
X136906Y163322D03*
X10922Y243840D03*
X27178Y244094D03*
X44958Y244094D03*
X61722Y243840D03*
X74422Y232410D03*
X83820Y219964D03*
X95250Y208788D03*
X10160Y264160D03*
X26670Y264160D03*
X45720Y264160D03*
X67310Y261620D03*
X81280Y251460D03*
X88900Y242570D03*
X95250Y234950D03*
X121920Y208280D03*
X135890Y193040D03*
X156210Y216662D03*
X148082Y49530D03*
X496570Y191770D03*
X473710Y190500D03*
X449580Y190500D03*
X429260Y190500D03*
X401320Y190500D03*
X373380Y193040D03*
X328930Y191770D03*
X307340Y189230D03*
X288290Y189230D03*
X267970Y189230D03*
X273050Y171450D03*
X257810Y172720D03*
X289560Y171450D03*
X314960Y170180D03*
X347980Y170180D03*
X367030Y170180D03*
X398780Y170180D03*
X450850Y171450D03*
X474980Y172720D03*
X496570Y170180D03*
D17*
X50800Y965200D03*
X50800Y25400D03*
X457200Y25400D03*
D16*
X80010Y177800D03*
X38100Y193040D03*
X59690Y149860D03*
X198120Y57150D03*
X257810Y102870D03*
X210566Y153924D03*
X281940Y134620D03*
X234950Y153670D03*
X300990Y98298D03*
X384810Y138430D03*
X406400Y149860D03*
X414020Y118110D03*
X416560Y139700D03*
X364490Y275590D03*
X229870Y290830D03*
X204470Y287020D03*
X181610Y288290D03*
X194310Y186690D03*
X185420Y186690D03*
X176530Y186690D03*
X176530Y177800D03*
X185420Y177800D03*
X194310Y177800D03*
X194310Y168910D03*
X185420Y168910D03*
X176530Y168910D03*
X80010Y187960D03*
X80010Y167640D03*
X112014Y120650D03*
X229870Y135890D03*
X133350Y267970D03*
X116840Y262890D03*
X340360Y342900D03*
X159004Y241300D03*
X151384Y241300D03*
X223774Y210820D03*
X244856Y223012D03*
X244856Y215646D03*
X258572Y150114D03*
X258572Y141732D03*
X132080Y203200D03*
X315722Y127000D03*
X129794Y241808D03*
X136906Y241808D03*
X141224Y215138D03*
X114300Y215900D03*
X245110Y128270D03*
X308864Y98044D03*
X339852Y144780D03*
X348742Y144780D03*
X422402Y86360D03*
X283210Y316230D03*
X283210Y285750D03*
X279400Y227330D03*
X279400Y264160D03*
X115824Y91948D03*
X124460Y92202D03*
X142240Y125476D03*
X131064Y116586D03*
X195326Y102108D03*
X151892Y135382D03*
X227838Y115062D03*
X216408Y128778D03*
X227076Y145796D03*
D18*
X432054Y313436D03*
D16*
X327914Y44704D03*
X327914Y37084D03*
X359664Y68834D03*
D15*
X196850Y224790D03*
D19*
X197518Y225458D01*
X197584Y225458D01*
X197584Y248186D01*
X167640Y278130D01*
X140970Y715010D02*
X135890Y715010D01*
X129540Y626110D02*
X151130Y626110D01*
X129540Y626110D02*
X115570Y640080D01*
X115570Y694690D02*
X135890Y715010D01*
X151130Y626110D02*
X167640Y609600D01*
X115570Y640080D02*
X115570Y694690D01*
X167640Y609600D02*
X167640Y344170D01*
X167640Y278130D01*
D15*
X191770Y236220D03*
D19*
X142240Y285750D01*
X99060Y876300D02*
X140970Y918210D01*
X99060Y876300D02*
X99060Y387350D01*
X142240Y344170D01*
X142240Y285750D01*
D15*
X218440Y223520D03*
D19*
X218440Y289988D01*
X218441Y289988D02*
X218439Y290103D01*
X218433Y290218D01*
X218423Y290332D01*
X218410Y290446D01*
X218392Y290560D01*
X218371Y290673D01*
X218345Y290785D01*
X218316Y290896D01*
X218283Y291006D01*
X218247Y291115D01*
X218206Y291223D01*
X218162Y291329D01*
X218115Y291434D01*
X218064Y291537D01*
X218009Y291638D01*
X217951Y291737D01*
X217890Y291834D01*
X217825Y291929D01*
X217757Y292022D01*
X217686Y292112D01*
X217612Y292200D01*
X217535Y292285D01*
X217455Y292368D01*
X217372Y292448D01*
X217287Y292525D01*
X217199Y292599D01*
X217109Y292670D01*
X217016Y292738D01*
X216921Y292803D01*
X216824Y292864D01*
X216725Y292922D01*
X216624Y292977D01*
X216521Y293028D01*
X216416Y293075D01*
X216310Y293119D01*
X216202Y293160D01*
X216093Y293196D01*
X215983Y293229D01*
X215872Y293258D01*
X215760Y293284D01*
X215647Y293305D01*
X215533Y293323D01*
X215419Y293336D01*
X215305Y293346D01*
X215190Y293352D01*
X215075Y293354D01*
X215075Y293353D02*
X214969Y293353D01*
X214854Y293355D01*
X214739Y293361D01*
X214625Y293371D01*
X214511Y293384D01*
X214397Y293402D01*
X214284Y293423D01*
X214172Y293449D01*
X214061Y293478D01*
X213951Y293511D01*
X213842Y293547D01*
X213734Y293588D01*
X213628Y293632D01*
X213523Y293679D01*
X213420Y293730D01*
X213319Y293785D01*
X213220Y293843D01*
X213123Y293904D01*
X213028Y293969D01*
X212935Y294037D01*
X212845Y294108D01*
X212757Y294182D01*
X212672Y294259D01*
X212589Y294339D01*
X212509Y294422D01*
X212432Y294507D01*
X212358Y294595D01*
X212287Y294685D01*
X212219Y294778D01*
X212154Y294873D01*
X212093Y294970D01*
X212035Y295069D01*
X211980Y295170D01*
X211929Y295273D01*
X211882Y295378D01*
X211838Y295484D01*
X211797Y295592D01*
X211761Y295701D01*
X211728Y295811D01*
X211699Y295922D01*
X211673Y296034D01*
X211652Y296147D01*
X211634Y296261D01*
X211621Y296375D01*
X211611Y296489D01*
X211605Y296604D01*
X211603Y296719D01*
X211603Y308229D01*
X211605Y308344D01*
X211611Y308459D01*
X211621Y308573D01*
X211634Y308687D01*
X211652Y308801D01*
X211673Y308914D01*
X211699Y309026D01*
X211728Y309137D01*
X211761Y309247D01*
X211797Y309356D01*
X211838Y309464D01*
X211882Y309570D01*
X211929Y309675D01*
X211980Y309778D01*
X212035Y309879D01*
X212093Y309978D01*
X212154Y310075D01*
X212219Y310170D01*
X212287Y310263D01*
X212358Y310353D01*
X212432Y310441D01*
X212509Y310526D01*
X212589Y310609D01*
X212672Y310689D01*
X212757Y310766D01*
X212845Y310840D01*
X212935Y310911D01*
X213028Y310979D01*
X213123Y311044D01*
X213220Y311105D01*
X213319Y311163D01*
X213420Y311218D01*
X213523Y311269D01*
X213628Y311316D01*
X213734Y311360D01*
X213842Y311401D01*
X213951Y311437D01*
X214061Y311470D01*
X214172Y311499D01*
X214284Y311525D01*
X214397Y311546D01*
X214511Y311564D01*
X214625Y311577D01*
X214739Y311587D01*
X214854Y311593D01*
X214969Y311595D01*
X215075Y311595D01*
X215075Y311594D02*
X215190Y311596D01*
X215305Y311602D01*
X215419Y311612D01*
X215533Y311625D01*
X215647Y311643D01*
X215760Y311664D01*
X215872Y311690D01*
X215983Y311719D01*
X216093Y311752D01*
X216202Y311788D01*
X216310Y311829D01*
X216416Y311873D01*
X216521Y311920D01*
X216624Y311971D01*
X216725Y312026D01*
X216824Y312084D01*
X216921Y312145D01*
X217016Y312210D01*
X217109Y312278D01*
X217199Y312349D01*
X217287Y312423D01*
X217372Y312500D01*
X217455Y312580D01*
X217535Y312663D01*
X217612Y312748D01*
X217686Y312836D01*
X217757Y312926D01*
X217825Y313019D01*
X217890Y313114D01*
X217951Y313211D01*
X218009Y313310D01*
X218064Y313411D01*
X218115Y313514D01*
X218162Y313619D01*
X218206Y313725D01*
X218247Y313833D01*
X218283Y313942D01*
X218316Y314052D01*
X218345Y314163D01*
X218371Y314275D01*
X218392Y314388D01*
X218410Y314502D01*
X218423Y314616D01*
X218433Y314730D01*
X218439Y314845D01*
X218441Y314960D01*
X218440Y615950D02*
X222650Y620160D01*
X222733Y620240D01*
X222818Y620317D01*
X222906Y620391D01*
X222996Y620462D01*
X223089Y620530D01*
X223184Y620595D01*
X223281Y620656D01*
X223380Y620714D01*
X223481Y620769D01*
X223584Y620820D01*
X223689Y620867D01*
X223795Y620911D01*
X223903Y620952D01*
X224012Y620988D01*
X224122Y621021D01*
X224233Y621050D01*
X224345Y621076D01*
X224458Y621097D01*
X224572Y621115D01*
X224686Y621128D01*
X224800Y621138D01*
X224915Y621144D01*
X225030Y621146D01*
X225145Y621144D01*
X225260Y621138D01*
X225374Y621128D01*
X225488Y621115D01*
X225602Y621097D01*
X225715Y621076D01*
X225827Y621050D01*
X225938Y621021D01*
X226048Y620988D01*
X226157Y620952D01*
X226265Y620911D01*
X226371Y620867D01*
X226476Y620820D01*
X226579Y620769D01*
X226680Y620714D01*
X226779Y620656D01*
X226876Y620595D01*
X226971Y620530D01*
X227064Y620462D01*
X227154Y620391D01*
X227242Y620317D01*
X227327Y620240D01*
X227410Y620160D01*
X227409Y620160D02*
X227492Y620080D01*
X227577Y620003D01*
X227665Y619929D01*
X227755Y619858D01*
X227848Y619790D01*
X227943Y619725D01*
X228040Y619664D01*
X228139Y619606D01*
X228240Y619551D01*
X228343Y619500D01*
X228448Y619453D01*
X228554Y619409D01*
X228662Y619368D01*
X228771Y619332D01*
X228881Y619299D01*
X228992Y619270D01*
X229104Y619244D01*
X229217Y619223D01*
X229331Y619205D01*
X229445Y619192D01*
X229559Y619182D01*
X229674Y619176D01*
X229789Y619174D01*
X229904Y619176D01*
X230019Y619182D01*
X230133Y619192D01*
X230247Y619205D01*
X230361Y619223D01*
X230474Y619244D01*
X230586Y619270D01*
X230697Y619299D01*
X230807Y619332D01*
X230916Y619368D01*
X231024Y619409D01*
X231130Y619453D01*
X231235Y619500D01*
X231338Y619551D01*
X231439Y619606D01*
X231538Y619664D01*
X231635Y619725D01*
X231730Y619790D01*
X231823Y619858D01*
X231913Y619929D01*
X232001Y620003D01*
X232086Y620080D01*
X232169Y620160D01*
X233363Y621353D01*
X233443Y621436D01*
X233520Y621521D01*
X233594Y621609D01*
X233665Y621699D01*
X233733Y621792D01*
X233798Y621887D01*
X233859Y621984D01*
X233917Y622083D01*
X233972Y622184D01*
X234023Y622287D01*
X234070Y622392D01*
X234114Y622498D01*
X234155Y622606D01*
X234191Y622715D01*
X234224Y622825D01*
X234253Y622936D01*
X234279Y623048D01*
X234300Y623161D01*
X234318Y623275D01*
X234331Y623389D01*
X234341Y623503D01*
X234347Y623618D01*
X234349Y623733D01*
X234347Y623848D01*
X234341Y623963D01*
X234331Y624077D01*
X234318Y624191D01*
X234300Y624305D01*
X234279Y624418D01*
X234253Y624530D01*
X234224Y624641D01*
X234191Y624751D01*
X234155Y624860D01*
X234114Y624968D01*
X234070Y625074D01*
X234023Y625179D01*
X233972Y625282D01*
X233917Y625383D01*
X233859Y625482D01*
X233798Y625579D01*
X233733Y625674D01*
X233665Y625767D01*
X233594Y625857D01*
X233520Y625945D01*
X233443Y626030D01*
X233363Y626113D01*
X228603Y630873D01*
X228603Y630872D02*
X228523Y630955D01*
X228446Y631040D01*
X228372Y631128D01*
X228301Y631218D01*
X228233Y631311D01*
X228168Y631406D01*
X228107Y631503D01*
X228049Y631602D01*
X227994Y631703D01*
X227943Y631806D01*
X227896Y631911D01*
X227852Y632017D01*
X227811Y632125D01*
X227775Y632234D01*
X227742Y632344D01*
X227713Y632455D01*
X227687Y632567D01*
X227666Y632680D01*
X227648Y632794D01*
X227635Y632908D01*
X227625Y633022D01*
X227619Y633137D01*
X227617Y633252D01*
X227619Y633367D01*
X227625Y633482D01*
X227635Y633596D01*
X227648Y633710D01*
X227666Y633824D01*
X227687Y633937D01*
X227713Y634049D01*
X227742Y634160D01*
X227775Y634270D01*
X227811Y634379D01*
X227852Y634487D01*
X227896Y634593D01*
X227943Y634698D01*
X227994Y634801D01*
X228049Y634902D01*
X228107Y635001D01*
X228168Y635098D01*
X228233Y635193D01*
X228301Y635286D01*
X228372Y635376D01*
X228446Y635464D01*
X228523Y635549D01*
X228603Y635632D01*
X229797Y636826D01*
X229796Y636826D02*
X229879Y636906D01*
X229964Y636983D01*
X230052Y637057D01*
X230142Y637128D01*
X230235Y637196D01*
X230330Y637261D01*
X230427Y637322D01*
X230526Y637380D01*
X230627Y637435D01*
X230730Y637486D01*
X230835Y637533D01*
X230941Y637577D01*
X231049Y637618D01*
X231158Y637654D01*
X231268Y637687D01*
X231379Y637716D01*
X231491Y637742D01*
X231604Y637763D01*
X231718Y637781D01*
X231832Y637794D01*
X231946Y637804D01*
X232061Y637810D01*
X232176Y637812D01*
X232291Y637810D01*
X232406Y637804D01*
X232520Y637794D01*
X232634Y637781D01*
X232748Y637763D01*
X232861Y637742D01*
X232973Y637716D01*
X233084Y637687D01*
X233194Y637654D01*
X233303Y637618D01*
X233411Y637577D01*
X233517Y637533D01*
X233622Y637486D01*
X233725Y637435D01*
X233826Y637380D01*
X233925Y637322D01*
X234022Y637261D01*
X234117Y637196D01*
X234210Y637128D01*
X234300Y637057D01*
X234388Y636983D01*
X234473Y636906D01*
X234556Y636826D01*
X239316Y632066D01*
X239315Y632066D02*
X239398Y631986D01*
X239483Y631909D01*
X239571Y631835D01*
X239661Y631764D01*
X239754Y631696D01*
X239849Y631631D01*
X239946Y631570D01*
X240045Y631512D01*
X240146Y631457D01*
X240249Y631406D01*
X240354Y631359D01*
X240460Y631315D01*
X240568Y631274D01*
X240677Y631238D01*
X240787Y631205D01*
X240898Y631176D01*
X241010Y631150D01*
X241123Y631129D01*
X241237Y631111D01*
X241351Y631098D01*
X241465Y631088D01*
X241580Y631082D01*
X241695Y631080D01*
X241810Y631082D01*
X241925Y631088D01*
X242039Y631098D01*
X242153Y631111D01*
X242267Y631129D01*
X242380Y631150D01*
X242492Y631176D01*
X242603Y631205D01*
X242713Y631238D01*
X242822Y631274D01*
X242930Y631315D01*
X243036Y631359D01*
X243141Y631406D01*
X243244Y631457D01*
X243345Y631512D01*
X243444Y631570D01*
X243541Y631631D01*
X243636Y631696D01*
X243729Y631764D01*
X243819Y631835D01*
X243907Y631909D01*
X243992Y631986D01*
X244075Y632066D01*
X245269Y633260D01*
X245269Y633259D02*
X245349Y633342D01*
X245426Y633427D01*
X245500Y633515D01*
X245571Y633605D01*
X245639Y633698D01*
X245704Y633793D01*
X245765Y633890D01*
X245823Y633989D01*
X245878Y634090D01*
X245929Y634193D01*
X245976Y634298D01*
X246020Y634404D01*
X246061Y634512D01*
X246097Y634621D01*
X246130Y634731D01*
X246159Y634842D01*
X246185Y634954D01*
X246206Y635067D01*
X246224Y635181D01*
X246237Y635295D01*
X246247Y635409D01*
X246253Y635524D01*
X246255Y635639D01*
X246253Y635754D01*
X246247Y635869D01*
X246237Y635983D01*
X246224Y636097D01*
X246206Y636211D01*
X246185Y636324D01*
X246159Y636436D01*
X246130Y636547D01*
X246097Y636657D01*
X246061Y636766D01*
X246020Y636874D01*
X245976Y636980D01*
X245929Y637085D01*
X245878Y637188D01*
X245823Y637289D01*
X245765Y637388D01*
X245704Y637485D01*
X245639Y637580D01*
X245571Y637673D01*
X245500Y637763D01*
X245426Y637851D01*
X245349Y637936D01*
X245269Y638019D01*
X240509Y642779D01*
X240429Y642862D01*
X240352Y642947D01*
X240278Y643035D01*
X240207Y643125D01*
X240139Y643218D01*
X240074Y643313D01*
X240013Y643410D01*
X239955Y643509D01*
X239900Y643610D01*
X239849Y643713D01*
X239802Y643818D01*
X239758Y643924D01*
X239717Y644032D01*
X239681Y644141D01*
X239648Y644251D01*
X239619Y644362D01*
X239593Y644474D01*
X239572Y644587D01*
X239554Y644701D01*
X239541Y644815D01*
X239531Y644929D01*
X239525Y645044D01*
X239523Y645159D01*
X239525Y645274D01*
X239531Y645389D01*
X239541Y645503D01*
X239554Y645617D01*
X239572Y645731D01*
X239593Y645844D01*
X239619Y645956D01*
X239648Y646067D01*
X239681Y646177D01*
X239717Y646286D01*
X239758Y646394D01*
X239802Y646500D01*
X239849Y646605D01*
X239900Y646708D01*
X239955Y646809D01*
X240013Y646908D01*
X240074Y647005D01*
X240139Y647100D01*
X240207Y647193D01*
X240278Y647283D01*
X240352Y647371D01*
X240429Y647456D01*
X240509Y647539D01*
X240509Y647538D02*
X241703Y648732D01*
X241786Y648812D01*
X241871Y648889D01*
X241959Y648963D01*
X242049Y649034D01*
X242142Y649102D01*
X242237Y649167D01*
X242334Y649228D01*
X242433Y649286D01*
X242534Y649341D01*
X242637Y649392D01*
X242742Y649439D01*
X242848Y649483D01*
X242956Y649524D01*
X243065Y649560D01*
X243175Y649593D01*
X243286Y649622D01*
X243398Y649648D01*
X243511Y649669D01*
X243625Y649687D01*
X243739Y649700D01*
X243853Y649710D01*
X243968Y649716D01*
X244083Y649718D01*
X244198Y649716D01*
X244313Y649710D01*
X244427Y649700D01*
X244541Y649687D01*
X244655Y649669D01*
X244768Y649648D01*
X244880Y649622D01*
X244991Y649593D01*
X245101Y649560D01*
X245210Y649524D01*
X245318Y649483D01*
X245424Y649439D01*
X245529Y649392D01*
X245632Y649341D01*
X245733Y649286D01*
X245832Y649228D01*
X245929Y649167D01*
X246024Y649102D01*
X246117Y649034D01*
X246207Y648963D01*
X246295Y648889D01*
X246380Y648812D01*
X246463Y648732D01*
X246462Y648732D02*
X251222Y643972D01*
X251305Y643892D01*
X251390Y643815D01*
X251478Y643741D01*
X251568Y643670D01*
X251661Y643602D01*
X251756Y643537D01*
X251853Y643476D01*
X251952Y643418D01*
X252053Y643363D01*
X252156Y643312D01*
X252261Y643265D01*
X252367Y643221D01*
X252475Y643180D01*
X252584Y643144D01*
X252694Y643111D01*
X252805Y643082D01*
X252917Y643056D01*
X253030Y643035D01*
X253144Y643017D01*
X253258Y643004D01*
X253372Y642994D01*
X253487Y642988D01*
X253602Y642986D01*
X253717Y642988D01*
X253832Y642994D01*
X253946Y643004D01*
X254060Y643017D01*
X254174Y643035D01*
X254287Y643056D01*
X254399Y643082D01*
X254510Y643111D01*
X254620Y643144D01*
X254729Y643180D01*
X254837Y643221D01*
X254943Y643265D01*
X255048Y643312D01*
X255151Y643363D01*
X255252Y643418D01*
X255351Y643476D01*
X255448Y643537D01*
X255543Y643602D01*
X255636Y643670D01*
X255726Y643741D01*
X255814Y643815D01*
X255899Y643892D01*
X255982Y643972D01*
X255981Y643972D02*
X257175Y645166D01*
X257255Y645249D01*
X257332Y645334D01*
X257406Y645422D01*
X257477Y645512D01*
X257545Y645605D01*
X257610Y645700D01*
X257671Y645797D01*
X257729Y645896D01*
X257784Y645997D01*
X257835Y646100D01*
X257882Y646205D01*
X257926Y646311D01*
X257967Y646419D01*
X258003Y646528D01*
X258036Y646638D01*
X258065Y646749D01*
X258091Y646861D01*
X258112Y646974D01*
X258130Y647088D01*
X258143Y647202D01*
X258153Y647316D01*
X258159Y647431D01*
X258161Y647546D01*
X258159Y647661D01*
X258153Y647776D01*
X258143Y647890D01*
X258130Y648004D01*
X258112Y648118D01*
X258091Y648231D01*
X258065Y648343D01*
X258036Y648454D01*
X258003Y648564D01*
X257967Y648673D01*
X257926Y648781D01*
X257882Y648887D01*
X257835Y648992D01*
X257784Y649095D01*
X257729Y649196D01*
X257671Y649295D01*
X257610Y649392D01*
X257545Y649487D01*
X257477Y649580D01*
X257406Y649670D01*
X257332Y649758D01*
X257255Y649843D01*
X257175Y649926D01*
X257175Y649925D02*
X257095Y650008D01*
X257018Y650093D01*
X256944Y650181D01*
X256873Y650271D01*
X256805Y650364D01*
X256740Y650459D01*
X256679Y650556D01*
X256621Y650655D01*
X256566Y650756D01*
X256515Y650859D01*
X256468Y650964D01*
X256424Y651070D01*
X256383Y651178D01*
X256347Y651287D01*
X256314Y651397D01*
X256285Y651508D01*
X256259Y651620D01*
X256238Y651733D01*
X256220Y651847D01*
X256207Y651961D01*
X256197Y652075D01*
X256191Y652190D01*
X256189Y652305D01*
X256191Y652420D01*
X256197Y652535D01*
X256207Y652649D01*
X256220Y652763D01*
X256238Y652877D01*
X256259Y652990D01*
X256285Y653102D01*
X256314Y653213D01*
X256347Y653323D01*
X256383Y653432D01*
X256424Y653540D01*
X256468Y653646D01*
X256515Y653751D01*
X256566Y653854D01*
X256621Y653955D01*
X256679Y654054D01*
X256740Y654151D01*
X256805Y654246D01*
X256873Y654339D01*
X256944Y654429D01*
X257018Y654517D01*
X257095Y654602D01*
X257175Y654685D01*
X266700Y664210D01*
X293370Y664210D01*
X218440Y615950D02*
X218440Y344170D01*
X218440Y314960D01*
D15*
X219710Y154940D03*
D20*
X294640Y229870D01*
D19*
X321310Y382270D02*
X321310Y749300D01*
X317500Y753110D01*
X153670Y753110D02*
X140970Y765810D01*
X153670Y753110D02*
X317500Y753110D01*
X294640Y344170D02*
X294640Y229870D01*
X294640Y344170D02*
X294640Y355600D01*
X321310Y382270D01*
D15*
X224790Y186690D03*
D21*
X243840Y274320D03*
D19*
X260350Y562610D02*
X293370Y562610D01*
X260350Y562610D02*
X243840Y546100D01*
X243840Y344170D01*
X243840Y274320D01*
X243840Y243840D01*
X232410Y194310D02*
X224790Y186690D01*
X232410Y232410D02*
X243840Y243840D01*
X232410Y232410D02*
X232410Y194310D01*
D15*
X182586Y213360D03*
D16*
X188468Y89154D03*
D15*
X170761Y212798D03*
D16*
X170180Y126492D03*
D15*
X207010Y222250D03*
D19*
X207010Y255270D01*
X193040Y269240D01*
X193040Y292596D01*
X193041Y292596D02*
X193039Y292711D01*
X193033Y292826D01*
X193023Y292940D01*
X193010Y293054D01*
X192992Y293168D01*
X192971Y293281D01*
X192945Y293393D01*
X192916Y293504D01*
X192883Y293614D01*
X192847Y293723D01*
X192806Y293831D01*
X192762Y293937D01*
X192715Y294042D01*
X192664Y294145D01*
X192609Y294246D01*
X192551Y294345D01*
X192490Y294442D01*
X192425Y294537D01*
X192357Y294630D01*
X192286Y294720D01*
X192212Y294808D01*
X192135Y294893D01*
X192055Y294976D01*
X191972Y295056D01*
X191887Y295133D01*
X191799Y295207D01*
X191709Y295278D01*
X191616Y295346D01*
X191521Y295411D01*
X191424Y295472D01*
X191325Y295530D01*
X191224Y295585D01*
X191121Y295636D01*
X191016Y295683D01*
X190910Y295727D01*
X190802Y295768D01*
X190693Y295804D01*
X190583Y295837D01*
X190472Y295866D01*
X190360Y295892D01*
X190247Y295913D01*
X190133Y295931D01*
X190019Y295944D01*
X189905Y295954D01*
X189790Y295960D01*
X189675Y295962D01*
X189675Y295961D02*
X189560Y295963D01*
X189445Y295969D01*
X189331Y295979D01*
X189217Y295992D01*
X189103Y296010D01*
X188990Y296031D01*
X188878Y296057D01*
X188767Y296086D01*
X188657Y296119D01*
X188548Y296155D01*
X188440Y296196D01*
X188334Y296240D01*
X188229Y296287D01*
X188126Y296338D01*
X188025Y296393D01*
X187926Y296451D01*
X187829Y296512D01*
X187734Y296577D01*
X187641Y296645D01*
X187551Y296716D01*
X187463Y296790D01*
X187378Y296867D01*
X187295Y296947D01*
X187215Y297030D01*
X187138Y297115D01*
X187064Y297203D01*
X186993Y297293D01*
X186925Y297386D01*
X186860Y297481D01*
X186799Y297578D01*
X186741Y297677D01*
X186686Y297778D01*
X186635Y297881D01*
X186588Y297986D01*
X186544Y298092D01*
X186503Y298200D01*
X186467Y298309D01*
X186434Y298419D01*
X186405Y298530D01*
X186379Y298642D01*
X186358Y298755D01*
X186340Y298869D01*
X186327Y298983D01*
X186317Y299097D01*
X186311Y299212D01*
X186309Y299327D01*
X186309Y312039D01*
X186311Y312154D01*
X186317Y312269D01*
X186327Y312383D01*
X186340Y312497D01*
X186358Y312611D01*
X186379Y312724D01*
X186405Y312836D01*
X186434Y312947D01*
X186467Y313057D01*
X186503Y313166D01*
X186544Y313274D01*
X186588Y313380D01*
X186635Y313485D01*
X186686Y313588D01*
X186741Y313689D01*
X186799Y313788D01*
X186860Y313885D01*
X186925Y313980D01*
X186993Y314073D01*
X187064Y314163D01*
X187138Y314251D01*
X187215Y314336D01*
X187295Y314419D01*
X187378Y314499D01*
X187463Y314576D01*
X187551Y314650D01*
X187641Y314721D01*
X187734Y314789D01*
X187829Y314854D01*
X187926Y314915D01*
X188025Y314973D01*
X188126Y315028D01*
X188229Y315079D01*
X188334Y315126D01*
X188440Y315170D01*
X188548Y315211D01*
X188657Y315247D01*
X188767Y315280D01*
X188878Y315309D01*
X188990Y315335D01*
X189103Y315356D01*
X189217Y315374D01*
X189331Y315387D01*
X189445Y315397D01*
X189560Y315403D01*
X189675Y315405D01*
X189675Y315404D02*
X189790Y315406D01*
X189905Y315412D01*
X190019Y315422D01*
X190133Y315435D01*
X190247Y315453D01*
X190360Y315474D01*
X190472Y315500D01*
X190583Y315529D01*
X190693Y315562D01*
X190802Y315598D01*
X190910Y315639D01*
X191016Y315683D01*
X191121Y315730D01*
X191224Y315781D01*
X191325Y315836D01*
X191424Y315894D01*
X191521Y315955D01*
X191616Y316020D01*
X191709Y316088D01*
X191799Y316159D01*
X191887Y316233D01*
X191972Y316310D01*
X192055Y316390D01*
X192135Y316473D01*
X192212Y316558D01*
X192286Y316646D01*
X192357Y316736D01*
X192425Y316829D01*
X192490Y316924D01*
X192551Y317021D01*
X192609Y317120D01*
X192664Y317221D01*
X192715Y317324D01*
X192762Y317429D01*
X192806Y317535D01*
X192847Y317643D01*
X192883Y317752D01*
X192916Y317862D01*
X192945Y317973D01*
X192971Y318085D01*
X192992Y318198D01*
X193010Y318312D01*
X193023Y318426D01*
X193033Y318540D01*
X193039Y318655D01*
X193041Y318770D01*
X193040Y637540D02*
X184250Y646330D01*
X184170Y646413D01*
X184093Y646498D01*
X184019Y646586D01*
X183948Y646676D01*
X183880Y646769D01*
X183815Y646864D01*
X183754Y646961D01*
X183696Y647060D01*
X183641Y647161D01*
X183590Y647264D01*
X183543Y647369D01*
X183499Y647475D01*
X183458Y647583D01*
X183422Y647692D01*
X183389Y647802D01*
X183360Y647913D01*
X183334Y648025D01*
X183313Y648138D01*
X183295Y648252D01*
X183282Y648366D01*
X183272Y648480D01*
X183266Y648595D01*
X183264Y648710D01*
X183266Y648825D01*
X183272Y648940D01*
X183282Y649054D01*
X183295Y649168D01*
X183313Y649282D01*
X183334Y649395D01*
X183360Y649507D01*
X183389Y649618D01*
X183422Y649728D01*
X183458Y649837D01*
X183499Y649945D01*
X183543Y650051D01*
X183590Y650156D01*
X183641Y650259D01*
X183696Y650360D01*
X183754Y650459D01*
X183815Y650556D01*
X183880Y650651D01*
X183948Y650744D01*
X184019Y650834D01*
X184093Y650922D01*
X184170Y651007D01*
X184250Y651090D01*
X184346Y651185D01*
X184426Y651268D01*
X184503Y651353D01*
X184577Y651441D01*
X184648Y651531D01*
X184716Y651624D01*
X184781Y651719D01*
X184842Y651816D01*
X184900Y651915D01*
X184955Y652016D01*
X185006Y652119D01*
X185053Y652224D01*
X185097Y652330D01*
X185138Y652438D01*
X185174Y652547D01*
X185207Y652657D01*
X185236Y652768D01*
X185262Y652880D01*
X185283Y652993D01*
X185301Y653107D01*
X185314Y653221D01*
X185324Y653335D01*
X185330Y653450D01*
X185332Y653565D01*
X185330Y653680D01*
X185324Y653795D01*
X185314Y653909D01*
X185301Y654023D01*
X185283Y654137D01*
X185262Y654250D01*
X185236Y654362D01*
X185207Y654473D01*
X185174Y654583D01*
X185138Y654692D01*
X185097Y654800D01*
X185053Y654906D01*
X185006Y655011D01*
X184955Y655114D01*
X184900Y655215D01*
X184842Y655314D01*
X184781Y655411D01*
X184716Y655506D01*
X184648Y655599D01*
X184577Y655689D01*
X184503Y655777D01*
X184426Y655862D01*
X184346Y655945D01*
X184195Y656095D01*
X184195Y656096D02*
X184112Y656176D01*
X184027Y656253D01*
X183939Y656327D01*
X183849Y656398D01*
X183756Y656466D01*
X183661Y656531D01*
X183564Y656592D01*
X183465Y656650D01*
X183364Y656705D01*
X183261Y656756D01*
X183156Y656803D01*
X183050Y656847D01*
X182942Y656888D01*
X182833Y656924D01*
X182723Y656957D01*
X182612Y656986D01*
X182500Y657012D01*
X182387Y657033D01*
X182273Y657051D01*
X182159Y657064D01*
X182045Y657074D01*
X181930Y657080D01*
X181815Y657082D01*
X181700Y657080D01*
X181585Y657074D01*
X181471Y657064D01*
X181357Y657051D01*
X181243Y657033D01*
X181130Y657012D01*
X181018Y656986D01*
X180907Y656957D01*
X180797Y656924D01*
X180688Y656888D01*
X180580Y656847D01*
X180474Y656803D01*
X180369Y656756D01*
X180266Y656705D01*
X180165Y656650D01*
X180066Y656592D01*
X179969Y656531D01*
X179874Y656466D01*
X179781Y656398D01*
X179691Y656327D01*
X179603Y656253D01*
X179518Y656176D01*
X179435Y656096D01*
X179436Y656095D02*
X174485Y651144D01*
X174402Y651064D01*
X174317Y650987D01*
X174229Y650913D01*
X174139Y650842D01*
X174046Y650774D01*
X173951Y650709D01*
X173854Y650648D01*
X173755Y650590D01*
X173654Y650535D01*
X173551Y650484D01*
X173446Y650437D01*
X173340Y650393D01*
X173232Y650352D01*
X173123Y650316D01*
X173013Y650283D01*
X172902Y650254D01*
X172790Y650228D01*
X172677Y650207D01*
X172563Y650189D01*
X172449Y650176D01*
X172335Y650166D01*
X172220Y650160D01*
X172105Y650158D01*
X171990Y650160D01*
X171875Y650166D01*
X171761Y650176D01*
X171647Y650189D01*
X171533Y650207D01*
X171420Y650228D01*
X171308Y650254D01*
X171197Y650283D01*
X171087Y650316D01*
X170978Y650352D01*
X170870Y650393D01*
X170764Y650437D01*
X170659Y650484D01*
X170556Y650535D01*
X170455Y650590D01*
X170356Y650648D01*
X170259Y650709D01*
X170164Y650774D01*
X170071Y650842D01*
X169981Y650913D01*
X169893Y650987D01*
X169808Y651064D01*
X169725Y651144D01*
X169575Y651295D01*
X169574Y651295D02*
X169494Y651378D01*
X169417Y651463D01*
X169343Y651551D01*
X169272Y651641D01*
X169204Y651734D01*
X169139Y651829D01*
X169078Y651926D01*
X169020Y652025D01*
X168965Y652126D01*
X168914Y652229D01*
X168867Y652334D01*
X168823Y652440D01*
X168782Y652548D01*
X168746Y652657D01*
X168713Y652767D01*
X168684Y652878D01*
X168658Y652990D01*
X168637Y653103D01*
X168619Y653217D01*
X168606Y653331D01*
X168596Y653445D01*
X168590Y653560D01*
X168588Y653675D01*
X168590Y653790D01*
X168596Y653905D01*
X168606Y654019D01*
X168619Y654133D01*
X168637Y654247D01*
X168658Y654360D01*
X168684Y654472D01*
X168713Y654583D01*
X168746Y654693D01*
X168782Y654802D01*
X168823Y654910D01*
X168867Y655016D01*
X168914Y655121D01*
X168965Y655224D01*
X169020Y655325D01*
X169078Y655424D01*
X169139Y655521D01*
X169204Y655616D01*
X169272Y655709D01*
X169343Y655799D01*
X169417Y655887D01*
X169494Y655972D01*
X169574Y656055D01*
X169575Y656054D02*
X174526Y661005D01*
X174606Y661088D01*
X174683Y661173D01*
X174757Y661261D01*
X174828Y661351D01*
X174896Y661444D01*
X174961Y661539D01*
X175022Y661636D01*
X175080Y661735D01*
X175135Y661836D01*
X175186Y661939D01*
X175233Y662044D01*
X175277Y662150D01*
X175318Y662258D01*
X175354Y662367D01*
X175387Y662477D01*
X175416Y662588D01*
X175442Y662700D01*
X175463Y662813D01*
X175481Y662927D01*
X175494Y663041D01*
X175504Y663155D01*
X175510Y663270D01*
X175512Y663385D01*
X175510Y663500D01*
X175504Y663615D01*
X175494Y663729D01*
X175481Y663843D01*
X175463Y663957D01*
X175442Y664070D01*
X175416Y664182D01*
X175387Y664293D01*
X175354Y664403D01*
X175318Y664512D01*
X175277Y664620D01*
X175233Y664726D01*
X175186Y664831D01*
X175135Y664934D01*
X175080Y665035D01*
X175022Y665134D01*
X174961Y665231D01*
X174896Y665326D01*
X174828Y665419D01*
X174757Y665509D01*
X174683Y665597D01*
X174606Y665682D01*
X174526Y665765D01*
X174375Y665916D01*
X174292Y665996D01*
X174207Y666073D01*
X174119Y666147D01*
X174029Y666218D01*
X173936Y666286D01*
X173841Y666351D01*
X173744Y666412D01*
X173645Y666470D01*
X173544Y666525D01*
X173441Y666576D01*
X173336Y666623D01*
X173230Y666667D01*
X173122Y666708D01*
X173013Y666744D01*
X172903Y666777D01*
X172792Y666806D01*
X172680Y666832D01*
X172567Y666853D01*
X172453Y666871D01*
X172339Y666884D01*
X172225Y666894D01*
X172110Y666900D01*
X171995Y666902D01*
X171880Y666900D01*
X171765Y666894D01*
X171651Y666884D01*
X171537Y666871D01*
X171423Y666853D01*
X171310Y666832D01*
X171198Y666806D01*
X171087Y666777D01*
X170977Y666744D01*
X170868Y666708D01*
X170760Y666667D01*
X170654Y666623D01*
X170549Y666576D01*
X170446Y666525D01*
X170345Y666470D01*
X170246Y666412D01*
X170149Y666351D01*
X170054Y666286D01*
X169961Y666218D01*
X169871Y666147D01*
X169783Y666073D01*
X169698Y665996D01*
X169615Y665916D01*
X164665Y660965D01*
X164665Y660964D02*
X164582Y660884D01*
X164497Y660807D01*
X164409Y660733D01*
X164319Y660662D01*
X164226Y660594D01*
X164131Y660529D01*
X164034Y660468D01*
X163935Y660410D01*
X163834Y660355D01*
X163731Y660304D01*
X163626Y660257D01*
X163520Y660213D01*
X163412Y660172D01*
X163303Y660136D01*
X163193Y660103D01*
X163082Y660074D01*
X162970Y660048D01*
X162857Y660027D01*
X162743Y660009D01*
X162629Y659996D01*
X162515Y659986D01*
X162400Y659980D01*
X162285Y659978D01*
X162170Y659980D01*
X162055Y659986D01*
X161941Y659996D01*
X161827Y660009D01*
X161713Y660027D01*
X161600Y660048D01*
X161488Y660074D01*
X161377Y660103D01*
X161267Y660136D01*
X161158Y660172D01*
X161050Y660213D01*
X160944Y660257D01*
X160839Y660304D01*
X160736Y660355D01*
X160635Y660410D01*
X160536Y660468D01*
X160439Y660529D01*
X160344Y660594D01*
X160251Y660662D01*
X160161Y660733D01*
X160073Y660807D01*
X159988Y660884D01*
X159905Y660964D01*
X159905Y660965D02*
X159754Y661115D01*
X159674Y661198D01*
X159597Y661283D01*
X159523Y661371D01*
X159452Y661461D01*
X159384Y661554D01*
X159319Y661649D01*
X159258Y661746D01*
X159200Y661845D01*
X159145Y661946D01*
X159094Y662049D01*
X159047Y662154D01*
X159003Y662260D01*
X158962Y662368D01*
X158926Y662477D01*
X158893Y662587D01*
X158864Y662698D01*
X158838Y662810D01*
X158817Y662923D01*
X158799Y663037D01*
X158786Y663151D01*
X158776Y663265D01*
X158770Y663380D01*
X158768Y663495D01*
X158770Y663610D01*
X158776Y663725D01*
X158786Y663839D01*
X158799Y663953D01*
X158817Y664067D01*
X158838Y664180D01*
X158864Y664292D01*
X158893Y664403D01*
X158926Y664513D01*
X158962Y664622D01*
X159003Y664730D01*
X159047Y664836D01*
X159094Y664941D01*
X159145Y665044D01*
X159200Y665145D01*
X159258Y665244D01*
X159319Y665341D01*
X159384Y665436D01*
X159452Y665529D01*
X159523Y665619D01*
X159597Y665707D01*
X159674Y665792D01*
X159754Y665875D01*
X164705Y670826D01*
X164706Y670825D02*
X164786Y670908D01*
X164863Y670993D01*
X164937Y671081D01*
X165008Y671171D01*
X165076Y671264D01*
X165141Y671359D01*
X165202Y671456D01*
X165260Y671555D01*
X165315Y671656D01*
X165366Y671759D01*
X165413Y671864D01*
X165457Y671970D01*
X165498Y672078D01*
X165534Y672187D01*
X165567Y672297D01*
X165596Y672408D01*
X165622Y672520D01*
X165643Y672633D01*
X165661Y672747D01*
X165674Y672861D01*
X165684Y672975D01*
X165690Y673090D01*
X165692Y673205D01*
X165690Y673320D01*
X165684Y673435D01*
X165674Y673549D01*
X165661Y673663D01*
X165643Y673777D01*
X165622Y673890D01*
X165596Y674002D01*
X165567Y674113D01*
X165534Y674223D01*
X165498Y674332D01*
X165457Y674440D01*
X165413Y674546D01*
X165366Y674651D01*
X165315Y674754D01*
X165260Y674855D01*
X165202Y674954D01*
X165141Y675051D01*
X165076Y675146D01*
X165008Y675239D01*
X164937Y675329D01*
X164863Y675417D01*
X164786Y675502D01*
X164706Y675585D01*
X164705Y675585D02*
X164555Y675736D01*
X164472Y675816D01*
X164387Y675893D01*
X164299Y675967D01*
X164209Y676038D01*
X164116Y676106D01*
X164021Y676171D01*
X163924Y676232D01*
X163825Y676290D01*
X163724Y676345D01*
X163621Y676396D01*
X163516Y676443D01*
X163410Y676487D01*
X163302Y676528D01*
X163193Y676564D01*
X163083Y676597D01*
X162972Y676626D01*
X162860Y676652D01*
X162747Y676673D01*
X162633Y676691D01*
X162519Y676704D01*
X162405Y676714D01*
X162290Y676720D01*
X162175Y676722D01*
X162060Y676720D01*
X161945Y676714D01*
X161831Y676704D01*
X161717Y676691D01*
X161603Y676673D01*
X161490Y676652D01*
X161378Y676626D01*
X161267Y676597D01*
X161157Y676564D01*
X161048Y676528D01*
X160940Y676487D01*
X160834Y676443D01*
X160729Y676396D01*
X160626Y676345D01*
X160525Y676290D01*
X160426Y676232D01*
X160329Y676171D01*
X160234Y676106D01*
X160141Y676038D01*
X160051Y675967D01*
X159963Y675893D01*
X159878Y675816D01*
X159795Y675736D01*
X159700Y675640D01*
X159617Y675560D01*
X159532Y675483D01*
X159444Y675409D01*
X159354Y675338D01*
X159261Y675270D01*
X159166Y675205D01*
X159069Y675144D01*
X158970Y675086D01*
X158869Y675031D01*
X158766Y674980D01*
X158661Y674933D01*
X158555Y674889D01*
X158447Y674848D01*
X158338Y674812D01*
X158228Y674779D01*
X158117Y674750D01*
X158005Y674724D01*
X157892Y674703D01*
X157778Y674685D01*
X157664Y674672D01*
X157550Y674662D01*
X157435Y674656D01*
X157320Y674654D01*
X157205Y674656D01*
X157090Y674662D01*
X156976Y674672D01*
X156862Y674685D01*
X156748Y674703D01*
X156635Y674724D01*
X156523Y674750D01*
X156412Y674779D01*
X156302Y674812D01*
X156193Y674848D01*
X156085Y674889D01*
X155979Y674933D01*
X155874Y674980D01*
X155771Y675031D01*
X155670Y675086D01*
X155571Y675144D01*
X155474Y675205D01*
X155379Y675270D01*
X155286Y675338D01*
X155196Y675409D01*
X155108Y675483D01*
X155023Y675560D01*
X154940Y675640D01*
X140970Y689610D01*
X193040Y637540D02*
X193040Y344170D01*
X193040Y318770D01*
D22*
X107950Y177800D03*
X185420Y31750D03*
D15*
X223123Y165498D03*
D20*
X268445Y210820D01*
D19*
X269240Y211615D02*
X269240Y344170D01*
X269240Y211615D02*
X268445Y210820D01*
D21*
X128270Y284480D03*
X257810Y283210D03*
X339090Y316230D03*
D23*
X164846Y253492D03*
X120904Y255016D03*
X107950Y78740D03*
X323850Y83820D03*
X271526Y158884D03*
D21*
X256540Y208280D03*
D16*
X303276Y216154D03*
D22*
X437896Y250444D03*
D21*
X322580Y67310D03*
D16*
X119888Y110490D03*
X148590Y143510D03*
D18*
X486410Y327660D03*
D11*
X426988Y159766D02*
X426960Y159766D01*
X426988Y159766D02*
X437134Y149620D01*
X437134Y115810D01*
X415036Y171690D02*
X415036Y256286D01*
X415036Y171690D02*
X426960Y159766D01*
X437134Y115810D02*
X436880Y115556D01*
X436880Y74930D01*
X382270Y20320D01*
X415036Y256286D02*
X486410Y327660D01*
X382270Y20320D02*
X288290Y20320D01*
D18*
X288290Y20320D03*
M02*
