M48
;GenerationSoftware,Autodesk,EAGLE,9.6.2*%
;CreationDate,2020-11-19T19:18:19Z*%
FMAT,2
ICI,OFF
METRIC,TZ,000.000
T9C0.254
T8C0.350
T7C0.356
T6C0.400
T5C0.508
T4C0.965
T3C1.000
T2C1.016
T1C3.556
%
G90
M71
T1
X5080Y96520
X5080Y2540
X45720Y2540
X45720Y96520
T2
X19304Y34417
X43205Y31344
X24384Y34417
X26924Y34417
X21844Y34417
X29464Y34417
X32004Y34417
X14224Y34417
X48641Y32766
X28829Y2032
X16764Y34417
T3
X38735Y76581
X41275Y76581
T4
X29337Y58801
X29337Y61341
X26797Y96901
X26797Y91821
X26797Y89281
X26797Y86741
X14097Y99441
X14097Y94361
X14097Y91821
X14097Y89281
X14097Y86741
X14097Y84201
X14097Y81661
X14097Y79121
X14097Y76581
X14097Y74041
X14097Y71501
X14097Y68961
X14097Y66421
X29337Y66421
X29337Y68961
X29337Y71501
X29337Y74041
X29337Y76581
X29337Y79121
X29337Y81661
X29337Y84201
X29337Y86741
X29337Y89281
X29337Y91821
X14097Y96901
X29337Y94361
X29337Y96901
X29337Y99441
X14097Y63881
X29337Y63881
X14097Y61341
X14097Y58801
X14097Y56261
X14097Y53721
X14097Y51181
X14097Y48641
X14097Y46101
X14097Y43561
X14097Y41021
X29337Y41021
X29337Y43561
X29337Y46101
X29337Y48641
X29337Y51181
X29337Y53721
X29337Y56261
T5
X10795Y17780
X18542Y3175
X43790Y25044
T6
X16485Y25349
X12090Y25502
X32385Y8382
X27153Y15888
X10795Y7874
T7
X18161Y28829
X19431Y18669
X18542Y18669
X17653Y18669
X17653Y17780
X18542Y17780
X19431Y17780
X19431Y16891
X18542Y16891
X17653Y16891
X8001Y18796
X8001Y16764
X11201Y12065
X22987Y13589
X13335Y26797
X11684Y26289
X34036Y34290
X15900Y24130
X15138Y24130
X22377Y21082
X24486Y22301
X24486Y21565
X25857Y15011
X25857Y14173
X13208Y20320
X31572Y12700
X12979Y24181
X13691Y24181
X14122Y21514
X11430Y21590
X24511Y12827
X30886Y9804
X33985Y14478
X34874Y14478
X39878Y17018
X28321Y31623
X28321Y28575
X27940Y22733
X27940Y26416
X11582Y9195
X12446Y9220
X14224Y12548
X13106Y11659
X19533Y10211
X15189Y13538
X22784Y11506
X21641Y12878
X22708Y14580
X32791Y4470
X32791Y3708
X35966Y6883
X18847Y8915
X17018Y12649
X1016Y26416
X1651Y11176
X3454Y11176
X5944Y11176
X7315Y12192
X8204Y13081
X30328Y21615
X8331Y13970
X11989Y11049
X14859Y14351
X9982Y15113
X10871Y16002
X1651Y9144
X3429Y9144
X6223Y9271
X7874Y10160
X8763Y11303
X9373Y11963
X10744Y13157
X11405Y13919
X11836Y14453
X13691Y16332
X1092Y24384
X2718Y24409
X4496Y24409
X6172Y24384
X7442Y23241
X8382Y21996
X9525Y20879
X2667Y26416
X4572Y26416
X6731Y26162
X8128Y25146
X8890Y24257
X9525Y23495
X12192Y20828
X13589Y19304
X15621Y21666
X14808Y4953
X49657Y19177
X47371Y19050
X44958Y19050
X42926Y19050
X40132Y19050
X37338Y19304
X32893Y19177
X30734Y18923
X42240Y8636
X28829Y18923
X26797Y18923
X27305Y17145
X25781Y17272
X28956Y17145
X31496Y17018
X34798Y17018
X36703Y17018
X45085Y17145
X47498Y17272
X49657Y17018
X8001Y17780
X3810Y19304
X5969Y14986
X19812Y5715
X25781Y10287
X21057Y15392
X28194Y13462
X23495Y15367
X30099Y9830
X38481Y13843
X40640Y14986
X41402Y11811
X41656Y13970
X36449Y27559
X22987Y29083
X20447Y28702
T8
X32258Y6731
X12827Y28448
X25781Y28321
X33909Y31623
X24384Y27432
X25654Y20828
T9
X19685Y22479
X20701Y22225
X21710Y19030
X19177Y23622
X22312Y16550
X21844Y22352
X21971Y15494
X22479Y18669
X18259Y21336
X21768Y17043
X17076Y21280
M30