G04 EAGLE Gerber RS-274X export*
G75*
%MOMM*%
%FSLAX34Y34*%
%LPD*%
%IN*%
%IPPOS*%
%AMOC8*
5,1,8,0,0,1.08239X$1,22.5*%
G01*
%ADD10C,0.254000*%


D10*
X0Y-25400D02*
X508000Y-25400D01*
X508000Y1016000D01*
X0Y1016000D01*
X0Y-25400D01*
X474980Y964618D02*
X474904Y963456D01*
X474752Y962302D01*
X474525Y961160D01*
X474224Y960036D01*
X473849Y958934D01*
X473404Y957858D01*
X472889Y956814D01*
X472307Y955806D01*
X471660Y954838D01*
X470952Y953914D01*
X470184Y953039D01*
X469361Y952216D01*
X468486Y951449D01*
X467562Y950740D01*
X466594Y950093D01*
X465586Y949511D01*
X464542Y948996D01*
X463466Y948551D01*
X462364Y948177D01*
X461240Y947875D01*
X460098Y947648D01*
X458944Y947496D01*
X457782Y947420D01*
X456618Y947420D01*
X455456Y947496D01*
X454302Y947648D01*
X453160Y947875D01*
X452036Y948177D01*
X450934Y948551D01*
X449858Y948996D01*
X448814Y949511D01*
X447806Y950093D01*
X446838Y950740D01*
X445914Y951449D01*
X445039Y952216D01*
X444216Y953039D01*
X443449Y953914D01*
X442740Y954838D01*
X442093Y955806D01*
X441511Y956814D01*
X440996Y957858D01*
X440551Y958934D01*
X440177Y960036D01*
X439875Y961160D01*
X439648Y962302D01*
X439496Y963456D01*
X439420Y964618D01*
X439420Y965782D01*
X439496Y966944D01*
X439648Y968098D01*
X439875Y969240D01*
X440177Y970364D01*
X440551Y971466D01*
X440996Y972542D01*
X441511Y973586D01*
X442093Y974594D01*
X442740Y975562D01*
X443449Y976486D01*
X444216Y977361D01*
X445039Y978184D01*
X445914Y978952D01*
X446838Y979660D01*
X447806Y980307D01*
X448814Y980889D01*
X449858Y981404D01*
X450934Y981849D01*
X452036Y982224D01*
X453160Y982525D01*
X454302Y982752D01*
X455456Y982904D01*
X456618Y982980D01*
X457782Y982980D01*
X458944Y982904D01*
X460098Y982752D01*
X461240Y982525D01*
X462364Y982224D01*
X463466Y981849D01*
X464542Y981404D01*
X465586Y980889D01*
X466594Y980307D01*
X467562Y979660D01*
X468486Y978952D01*
X469361Y978184D01*
X470184Y977361D01*
X470952Y976486D01*
X471660Y975562D01*
X472307Y974594D01*
X472889Y973586D01*
X473404Y972542D01*
X473849Y971466D01*
X474224Y970364D01*
X474525Y969240D01*
X474752Y968098D01*
X474904Y966944D01*
X474980Y965782D01*
X474980Y964618D01*
M02*
